<svg width="16" height="16" viewBox="0 0 16 16" fill="none" xmlns="http://www.w3.org/2000/svg">
<path d="M5.21429 1.5H6.14286V2.42857H5.21429V1.5Z" fill="white" fill-opacity="0.32"/>
<path d="M5.21429 2.42857H6.14286V3.35714H5.21429V2.42857Z" fill="white" fill-opacity="0.32"/>
<path d="M5.21429 3.35714H6.14286V4.28571H5.21429V3.35714Z" fill="white" fill-opacity="0.32"/>
<path d="M9.85714 1.5H10.7857V2.42857H9.85714V1.5Z" fill="white" fill-opacity="0.32"/>
<path d="M9.85714 2.42857H10.7857V3.35714H9.85714V2.42857Z" fill="white" fill-opacity="0.32"/>
<path d="M9.85714 3.35714H10.7857V4.28571H9.85714V3.35714Z" fill="white" fill-opacity="0.32"/>
<path d="M6.14286 2.42857H7.07143V3.35714H6.14286V2.42857Z" fill="white" fill-opacity="0.32"/>
<path d="M7.07143 2.42857H8V3.35714H7.07143V2.42857Z" fill="white" fill-opacity="0.32"/>
<path d="M8 2.42857H8.92857V3.35714H8V2.42857Z" fill="white" fill-opacity="0.32"/>
<path d="M8.92857 2.42857H9.85714V3.35714H8.92857V2.42857Z" fill="white" fill-opacity="0.32"/>
<path d="M4.28571 2.42857H5.21429V3.35714H4.28571V2.42857Z" fill="white" fill-opacity="0.32"/>
<path d="M3.35714 2.42857H4.28571V3.35714H3.35714V2.42857Z" fill="white" fill-opacity="0.32"/>
<path d="M2.42857 3.35714H3.35714V4.28571H2.42857V3.35714Z" fill="white" fill-opacity="0.32"/>
<path d="M10.7857 2.42857H11.7143V3.35714H10.7857V2.42857Z" fill="white" fill-opacity="0.32"/>
<path d="M11.7143 2.42857H12.6429V3.35714H11.7143V2.42857Z" fill="white" fill-opacity="0.32"/>
<path d="M12.6429 3.35714H13.5714V4.28571H12.6429V3.35714Z" fill="white" fill-opacity="0.32"/>
<path d="M13.5714 4.28571H14.5V5.21429H13.5714V4.28571Z" fill="white" fill-opacity="0.32"/>
<path d="M13.5714 5.21429H14.5V6.14286H13.5714V5.21429Z" fill="white" fill-opacity="0.32"/>
<path d="M13.5714 6.14286H14.5V7.07143H13.5714V6.14286Z" fill="white" fill-opacity="0.32"/>
<path d="M13.5714 7.07143H14.5V8H13.5714V7.07143Z" fill="white" fill-opacity="0.32"/>
<path d="M13.5714 8H14.5V8.92857H13.5714V8Z" fill="white" fill-opacity="0.32"/>
<path d="M13.5714 8.92857H14.5V9.85714H13.5714V8.92857Z" fill="white" fill-opacity="0.32"/>
<path d="M13.5714 9.85714H14.5V10.7857H13.5714V9.85714Z" fill="white" fill-opacity="0.32"/>
<path d="M1.5 4.28571H2.42857V5.21429H1.5V4.28571Z" fill="white" fill-opacity="0.32"/>
<path d="M1.5 5.21429H2.42857V6.14286H1.5V5.21429Z" fill="white" fill-opacity="0.32"/>
<path d="M1.5 6.14286H2.42857V7.07143H1.5V6.14286Z" fill="white" fill-opacity="0.32"/>
<path d="M1.5 7.07143H2.42857V8H1.5V7.07143Z" fill="white" fill-opacity="0.32"/>
<path d="M1.5 8H2.42857V8.92857H1.5V8Z" fill="white" fill-opacity="0.32"/>
<path d="M1.5 8.92857H2.42857V9.85714H1.5V8.92857Z" fill="white" fill-opacity="0.32"/>
<path d="M1.5 9.85714H2.42857V10.7857H1.5V9.85714Z" fill="white" fill-opacity="0.32"/>
<path d="M1.5 10.7857H2.42857V11.7143H1.5V10.7857Z" fill="white" fill-opacity="0.32"/>
<path d="M1.5 11.7143H2.42857V12.6429H1.5V11.7143Z" fill="white" fill-opacity="0.32"/>
<path d="M2.42857 12.6429H3.35714V13.5714H2.42857V12.6429Z" fill="white" fill-opacity="0.32"/>
<path d="M3.35714 13.5714H4.28571V14.5H3.35714V13.5714Z" fill="white" fill-opacity="0.32"/>
<path d="M4.28571 13.5714H5.21429V14.5H4.28571V13.5714Z" fill="white" fill-opacity="0.32"/>
<path d="M5.21429 13.5714H6.14286V14.5H5.21429V13.5714Z" fill="white" fill-opacity="0.32"/>
<path d="M6.14286 13.5714H7.07143V14.5H6.14286V13.5714Z" fill="white" fill-opacity="0.32"/>
<path d="M7.07143 13.5714H8V14.5H7.07143V13.5714Z" fill="white" fill-opacity="0.32"/>
<path d="M8 13.5714H8.92857V14.5H8V13.5714Z" fill="white" fill-opacity="0.32"/>
<path d="M8.92857 13.5714H9.85714V14.5H8.92857V13.5714Z" fill="white" fill-opacity="0.32"/>
<path d="M9.85714 13.5714H10.7857V14.5H9.85714V13.5714Z" fill="white" fill-opacity="0.32"/>
<path d="M10.7857 13.5714H11.7143V14.5H10.7857V13.5714Z" fill="white" fill-opacity="0.32"/>
<path d="M11.7143 13.5714H12.6429V14.5H11.7143V13.5714Z" fill="white" fill-opacity="0.32"/>
<path d="M12.6429 12.6429H13.5714V13.5714H12.6429V12.6429Z" fill="white" fill-opacity="0.32"/>
<path d="M13.5714 11.7143H14.5V12.6429H13.5714V11.7143Z" fill="white" fill-opacity="0.32"/>
<path d="M13.5714 10.7857H14.5V11.7143H13.5714V10.7857Z" fill="white" fill-opacity="0.32"/>
<path d="M6.5 9.5H7.5V10.5H6.5V9.5Z" fill="white" fill-opacity="0.32"/>
<path d="M5.5 8.5H6.5V9.5H5.5V8.5Z" fill="white" fill-opacity="0.32"/>
<path d="M7.5 8.5H8.5V9.5H7.5V8.5Z" fill="white" fill-opacity="0.32"/>
<path d="M8.5 7.5H9.5V8.5H8.5V7.5Z" fill="white" fill-opacity="0.32"/>
<path d="M9.5 6.5H10.5V7.5H9.5V6.5Z" fill="white" fill-opacity="0.32"/>
</svg>
