<svg width="16" height="16" viewBox="0 0 16 16" fill="none" xmlns="http://www.w3.org/2000/svg">
<path d="M6 12H7V13H6V12Z" fill="white" fill-opacity="0.32"/>
<path d="M7 12H8V13H7V12Z" fill="white" fill-opacity="0.32"/>
<path d="M8 12H9V13H8V12Z" fill="white" fill-opacity="0.32"/>
<path d="M9 12H10V13H9V12Z" fill="white" fill-opacity="0.32"/>
<path d="M5 11H6V12H5V11Z" fill="white" fill-opacity="0.32"/>
<path d="M10 11H11V12H10V11Z" fill="white" fill-opacity="0.32"/>
<path d="M1 10H2V11H1V10Z" fill="white" fill-opacity="0.32"/>
<path d="M14 10H15V11H14V10Z" fill="white" fill-opacity="0.32"/>
<path d="M14 9H15V10H14V9Z" fill="white" fill-opacity="0.32"/>
<path d="M14 8H15V9H14V8Z" fill="white" fill-opacity="0.32"/>
<path d="M1 9H2V10H1V9Z" fill="white" fill-opacity="0.32"/>
<path d="M1 8H2V9H1V8Z" fill="white" fill-opacity="0.32"/>
<path d="M2 5H3V6H2V5Z" fill="white" fill-opacity="0.32"/>
<path d="M13 5H14V6H13V5Z" fill="white" fill-opacity="0.32"/>
<path d="M3 4H4V5H3V4Z" fill="white" fill-opacity="0.32"/>
<path d="M12 4H13V5H12V4Z" fill="white" fill-opacity="0.32"/>
<path d="M5 3H6V4H5V3Z" fill="white" fill-opacity="0.32"/>
<path d="M10 3H11V4H10V3Z" fill="white" fill-opacity="0.32"/>
<path d="M4 3H5V4H4V3Z" fill="white" fill-opacity="0.32"/>
<path d="M11 3H12V4H11V3Z" fill="white" fill-opacity="0.32"/>
<path d="M5 7H6V8H5V7Z" fill="white" fill-opacity="0.32"/>
<path d="M5 8H6V9H5V8Z" fill="white" fill-opacity="0.32"/>
<path d="M6 8H7V9H6V8Z" fill="white" fill-opacity="0.32"/>
<path d="M6 7H7V8H6V7Z" fill="white" fill-opacity="0.32"/>
<path d="M9 7H10V8H9V7Z" fill="white" fill-opacity="0.32"/>
<path d="M9 8H10V9H9V8Z" fill="white" fill-opacity="0.32"/>
<path d="M10 8H11V9H10V8Z" fill="white" fill-opacity="0.32"/>
<path d="M10 7H11V8H10V7Z" fill="white" fill-opacity="0.32"/>
<path d="M3 13H4V14H3V13Z" fill="white" fill-opacity="0.32"/>
<path d="M4 13H5V14H4V13Z" fill="white" fill-opacity="0.32"/>
<path d="M5 13H6V14H5V13Z" fill="white" fill-opacity="0.32"/>
<path d="M10 13H11V14H10V13Z" fill="white" fill-opacity="0.32"/>
<path d="M11 13H12V14H11V13Z" fill="white" fill-opacity="0.32"/>
<path d="M12 13H13V14H12V13Z" fill="white" fill-opacity="0.32"/>
<path d="M13 12H14V13H13V12Z" fill="white" fill-opacity="0.32"/>
<path d="M14 11H15V12H14V11Z" fill="white" fill-opacity="0.32"/>
<path d="M1 11H2V12H1V11Z" fill="white" fill-opacity="0.32"/>
<path d="M2 12H3V13H2V12Z" fill="white" fill-opacity="0.32"/>
<path d="M6 3H6.5V4H6V3Z" fill="white" fill-opacity="0.32"/>
<path d="M9.5 3H10V4H9.5V3Z" fill="white" fill-opacity="0.32"/>
<path d="M2 6H3V7H2V6Z" fill="white" fill-opacity="0.32"/>
<path d="M13 6H14V7H13V6Z" fill="white" fill-opacity="0.32"/>
<path d="M1 7H2V8H1V7Z" fill="white" fill-opacity="0.32"/>
<path d="M14 7H15V8H14V7Z" fill="white" fill-opacity="0.32"/>
<path d="M7.5 4H8.5V5H7.5V4Z" fill="white" fill-opacity="0.32"/>
<path d="M8.5 4H9.5V5H8.5V4Z" fill="white" fill-opacity="0.32"/>
<path d="M6.5 4H7.5V5H6.5V4Z" fill="white" fill-opacity="0.32"/>
</svg>
