<svg width="16" height="16" viewBox="0 0 16 16" fill="none" xmlns="http://www.w3.org/2000/svg">
<path d="M3.5 3H4.5V4H3.5V3Z" fill="#FAF1B1"/>
<path d="M3.5 4H4.5V5H3.5V4Z" fill="#FAF1B1"/>
<path d="M3.5 5H4.5V6H3.5V5Z" fill="#FAF1B1"/>
<path d="M3.5 6H4.5V7H3.5V6Z" fill="#FAF1B1"/>
<path d="M3.5 7H4.5V8H3.5V7Z" fill="#FAF1B1"/>
<path d="M3.5 8H4.5V9H3.5V8Z" fill="#FAF1B1"/>
<path d="M3.5 9H4.5V10H3.5V9Z" fill="#FAF1B1"/>
<path d="M3.5 10H4.5V11H3.5V10Z" fill="#FAF1B1"/>
<path d="M3.5 11H4.5V12H3.5V11Z" fill="#FAF1B1"/>
<path d="M3.5 12H4.5V13H3.5V12Z" fill="#FAF1B1"/>
<path d="M4.5 12H5.5V13H4.5V12Z" fill="#FAF1B1"/>
<path d="M4.5 13H5.5V14H4.5V13Z" fill="#FAF1B1"/>
<path d="M5.5 13H6.5V14H5.5V13Z" fill="#FAF1B1"/>
<path d="M6.5 13H7.5V14H6.5V13Z" fill="#FAF1B1"/>
<path d="M7.5 13H8.5V14H7.5V13Z" fill="#FAF1B1"/>
<path d="M8.5 13H9.5V14H8.5V13Z" fill="#FAF1B1"/>
<path d="M9.5 13H10.5V14H9.5V13Z" fill="#FAF1B1"/>
<path d="M10.5 13H11.5V14H10.5V13Z" fill="#FAF1B1"/>
<path d="M11.5 12H12.5V13H11.5V12Z" fill="#FAF1B1"/>
<path d="M10.5 12H11.5V13H10.5V12Z" fill="#FAF1B1"/>
<path d="M9.5 12H10.5V13H9.5V12Z" fill="#FAF1B1"/>
<path d="M8.5 12H9.5V13H8.5V12Z" fill="#FAF1B1"/>
<path d="M7.5 12H8.5V13H7.5V12Z" fill="#FAF1B1"/>
<path d="M6.5 12H7.5V13H6.5V12Z" fill="#FAF1B1"/>
<path d="M5.5 12H6.5V13H5.5V12Z" fill="#FAF1B1"/>
<path d="M5.5 11H6.5V12H5.5V11Z" fill="#FAF1B1"/>
<path d="M4.5 11H5.5V12H4.5V11Z" fill="#FAF1B1"/>
<path d="M4.5 10H5.5V11H4.5V10Z" fill="#FAF1B1"/>
<path d="M4.5 9H5.5V10H4.5V9Z" fill="#FAF1B1"/>
<path d="M4.5 8H5.5V9H4.5V8Z" fill="#FAF1B1"/>
<path d="M4.5 7H5.5V8H4.5V7Z" fill="#FAF1B1"/>
<path d="M4.5 6H5.5V7H4.5V6Z" fill="#FAF1B1"/>
<path d="M4.5 5H5.5V6H4.5V5Z" fill="#FAF1B1"/>
<path d="M4.5 4H5.5V5H4.5V4Z" fill="#FAF1B1"/>
<path d="M4.5 3H5.5V4H4.5V3Z" fill="#FAF1B1"/>
<path d="M4.5 2H5.5V3H4.5V2Z" fill="#FAF1B1"/>
<path d="M5.5 2H6.5V3H5.5V2Z" fill="#FAF1B1"/>
<path d="M5.5 3H6.5V4H5.5V3Z" fill="#FAF1B1"/>
<path d="M5.5 4H6.5V5H5.5V4Z" fill="#FAF1B1"/>
<path d="M5.5 5H6.5V6H5.5V5Z" fill="#FAF1B1"/>
<path d="M5.5 6H6.5V7H5.5V6Z" fill="#FAF1B1"/>
<path d="M5.5 7H6.5V8H5.5V7Z" fill="#FAF1B1"/>
<path d="M5.5 8H6.5V9H5.5V8Z" fill="#FAF1B1"/>
<path d="M5.5 9H6.5V10H5.5V9Z" fill="#FAF1B1"/>
<path d="M5.5 10H6.5V11H5.5V10Z" fill="#FAF1B1"/>
<path d="M6.5 10H7.5V11H6.5V10Z" fill="#FAF1B1"/>
<path d="M7.5 10H8.5V11H7.5V10Z" fill="#FAF1B1"/>
<path d="M7.5 11H8.5V12H7.5V11Z" fill="#FAF1B1"/>
<path d="M6.5 11H7.5V12H6.5V11Z" fill="#FAF1B1"/>
<path d="M6.5 2H7.5V3H6.5V2Z" fill="#FAF1B1"/>
<path d="M7.5 2H8.5V3H7.5V2Z" fill="#FAF1B1"/>
<path d="M7.5 3H8.5V4H7.5V3Z" fill="#FAF1B1"/>
<path d="M7.5 4H8.5V5H7.5V4Z" fill="#FAF1B1"/>
<path d="M7.5 5H8.5V6H7.5V5Z" fill="#FAF1B1"/>
<path d="M7.5 6H8.5V7H7.5V6Z" fill="#FAF1B1"/>
<path d="M7.5 7H8.5V8H7.5V7Z" fill="#FAF1B1"/>
<path d="M7.5 8H8.5V9H7.5V8Z" fill="#FAF1B1"/>
<path d="M7.5 9H8.5V10H7.5V9Z" fill="#FAF1B1"/>
<path d="M6.5 3H7.5V4H6.5V3Z" fill="#FAF1B1"/>
<path d="M6.5 4H7.5V5H6.5V4Z" fill="#FAF1B1"/>
<path d="M6.5 5H7.5V6H6.5V5Z" fill="#FAF1B1"/>
<path d="M6.5 6H7.5V7H6.5V6Z" fill="#FAF1B1"/>
<path d="M6.5 7H7.5V8H6.5V7Z" fill="#FAF1B1"/>
<path d="M6.5 8H7.5V9H6.5V8Z" fill="#FAF1B1"/>
<path d="M6.5 9H7.5V10H6.5V9Z" fill="#FAF1B1"/>
<path d="M8.5 11H9.5V12H8.5V11Z" fill="#FAF1B1"/>
<path d="M8.5 10H9.5V11H8.5V10Z" fill="#FAF1B1"/>
<path d="M8.5 9H9.5V10H8.5V9Z" fill="#FAF1B1"/>
<path d="M8.5 8H9.5V9H8.5V8Z" fill="#FAF1B1"/>
<path d="M8.5 7H9.5V8H8.5V7Z" fill="#FAF1B1"/>
<path d="M8.5 6H9.5V7H8.5V6Z" fill="#FAF1B1"/>
<path d="M9.5 6H10.5V7H9.5V6Z" fill="#FAF1B1"/>
<path d="M10.5 6H11.5V7H10.5V6Z" fill="#FAF1B1"/>
<path d="M11.5 6H12.5V7H11.5V6Z" fill="#FAF1B1"/>
<path d="M11.5 7H12.5V8H11.5V7Z" fill="#FAF1B1"/>
<path d="M11.5 8H12.5V9H11.5V8Z" fill="#FAF1B1"/>
<path d="M11.5 9H12.5V10H11.5V9Z" fill="#FAF1B1"/>
<path d="M11.5 10H12.5V11H11.5V10Z" fill="#FAF1B1"/>
<path d="M11.5 11H12.5V12H11.5V11Z" fill="#FAF1B1"/>
<path d="M10.5 11H11.5V12H10.5V11Z" fill="#FAF1B1"/>
<path d="M9.5 11H10.5V12H9.5V11Z" fill="#FAF1B1"/>
<path d="M9.5 10H10.5V11H9.5V10Z" fill="#FAF1B1"/>
<path d="M9.5 9H10.5V10H9.5V9Z" fill="#FAF1B1"/>
<path d="M9.5 8H10.5V9H9.5V8Z" fill="#FAF1B1"/>
<path d="M9.5 7H10.5V8H9.5V7Z" fill="#FAF1B1"/>
<path d="M10.5 7H11.5V8H10.5V7Z" fill="#FAF1B1"/>
<path d="M10.5 8H11.5V9H10.5V8Z" fill="#FAF1B1"/>
<path d="M10.5 9H11.5V10H10.5V9Z" fill="#FAF1B1"/>
<path d="M10.5 10H11.5V11H10.5V10Z" fill="#FAF1B1"/>
<path d="M11.5 4H12.5V5H11.5V4Z" fill="#FAF1B1"/>
<path d="M10.5 4H11.5V5H10.5V4Z" fill="#FAF1B1"/>
<path d="M10.5 3H11.5V4H10.5V3Z" fill="#FAF1B1"/>
<path d="M9.5 3H10.5V4H9.5V3Z" fill="#FAF1B1"/>
<path d="M9.5 2H10.5V3H9.5V2Z" fill="#FAF1B1"/>
<path d="M9.5 4H10.5V5H9.5V4Z" fill="#FAF1B1"/>
</svg>
