<svg width="16" height="16" viewBox="0 0 16 16" fill="none" xmlns="http://www.w3.org/2000/svg">
<path d="M3 3H4V4H3V3Z" fill="white" fill-opacity="0.48"/>
<path d="M3 4H4V5H3V4Z" fill="white" fill-opacity="0.48"/>
<path d="M3 5H4V6H3V5Z" fill="white" fill-opacity="0.48"/>
<path d="M3 6H4V7H3V6Z" fill="white" fill-opacity="0.48"/>
<path d="M3 7H4V8H3V7Z" fill="white" fill-opacity="0.48"/>
<path d="M3 8H4V9H3V8Z" fill="white" fill-opacity="0.48"/>
<path d="M3 9H4V10H3V9Z" fill="white" fill-opacity="0.48"/>
<path d="M3 10H4V11H3V10Z" fill="white" fill-opacity="0.48"/>
<path d="M3 11H4V12H3V11Z" fill="white" fill-opacity="0.48"/>
<path d="M3 12H4V13H3V12Z" fill="white" fill-opacity="0.48"/>
<path d="M12 6H13V7H12V6Z" fill="white" fill-opacity="0.48"/>
<path d="M12 7H13V8H12V7Z" fill="white" fill-opacity="0.48"/>
<path d="M12 8H13V9H12V8Z" fill="white" fill-opacity="0.48"/>
<path d="M12 9H13V10H12V9Z" fill="white" fill-opacity="0.48"/>
<path d="M12 10H13V11H12V10Z" fill="white" fill-opacity="0.48"/>
<path d="M12 11H13V12H12V11Z" fill="white" fill-opacity="0.48"/>
<path d="M12 12H13V13H12V12Z" fill="white" fill-opacity="0.48"/>
<path d="M4 2H5V3H4V2Z" fill="white" fill-opacity="0.48"/>
<path d="M4 13H5V14H4V13Z" fill="white" fill-opacity="0.48"/>
<path d="M5 13H6V14H5V13Z" fill="white" fill-opacity="0.48"/>
<path d="M6 13H7V14H6V13Z" fill="white" fill-opacity="0.48"/>
<path d="M7 13H8V14H7V13Z" fill="white" fill-opacity="0.48"/>
<path d="M8 13H9V14H8V13Z" fill="white" fill-opacity="0.48"/>
<path d="M9 13H10V14H9V13Z" fill="white" fill-opacity="0.48"/>
<path d="M10 13H11V14H10V13Z" fill="white" fill-opacity="0.48"/>
<path d="M11 13H12V14H11V13Z" fill="white" fill-opacity="0.48"/>
<path d="M5 2H6V3H5V2Z" fill="white" fill-opacity="0.48"/>
<path d="M6 2H7V3H6V2Z" fill="white" fill-opacity="0.48"/>
<path d="M7 2H8V3H7V2Z" fill="white" fill-opacity="0.48"/>
<path d="M8 2H9V3H8V2Z" fill="white" fill-opacity="0.48"/>
<path d="M10 3H11V4H10V3Z" fill="white" fill-opacity="0.48"/>
<path d="M11 4H12V5H11V4Z" fill="white" fill-opacity="0.48"/>
<path d="M12 5H13V6H12V5Z" fill="white" fill-opacity="0.48"/>
<path d="M9 2H10V3H9V2Z" fill="white" fill-opacity="0.48"/>
<path d="M8 3H9V4H8V3Z" fill="white" fill-opacity="0.48"/>
<path d="M8 4H9V5H8V4Z" fill="white" fill-opacity="0.48"/>
<path d="M8 5H9V6H8V5Z" fill="white" fill-opacity="0.48"/>
<path d="M9 6H10V7H9V6Z" fill="white" fill-opacity="0.48"/>
<path d="M10 6H11V7H10V6Z" fill="white" fill-opacity="0.48"/>
<path d="M11 6H12V7H11V6Z" fill="white" fill-opacity="0.48"/>
<path d="M5 9H6V10H5V9Z" fill="white" fill-opacity="0.48"/>
<path d="M6 9H7V10H6V9Z" fill="white" fill-opacity="0.48"/>
<path d="M7 9H8V10H7V9Z" fill="white" fill-opacity="0.48"/>
<path d="M8 9H9V10H8V9Z" fill="white" fill-opacity="0.48"/>
<path d="M9 9H10V10H9V9Z" fill="white" fill-opacity="0.48"/>
<path d="M10 9H11V10H10V9Z" fill="white" fill-opacity="0.48"/>
<path d="M5 11H6V12H5V11Z" fill="white" fill-opacity="0.48"/>
<path d="M6 11H7V12H6V11Z" fill="white" fill-opacity="0.48"/>
<path d="M7 11H8V12H7V11Z" fill="white" fill-opacity="0.48"/>
</svg>
