<svg width="16" height="16" viewBox="0 0 16 16" fill="none" xmlns="http://www.w3.org/2000/svg">
<path d="M6.36365 13.4167H7.45456V14.5H6.36365V13.4167Z" fill="white" fill-opacity="0.48"/>
<path d="M6.36365 12.3333H7.45456V13.4167H6.36365V12.3333Z" fill="white" fill-opacity="0.48"/>
<path d="M9.63635 12.3333H10.7273V13.4166H9.63635V12.3333Z" fill="white" fill-opacity="0.48"/>
<path d="M9.63635 13.4166H10.7273V14.5H9.63635V13.4166Z" fill="white" fill-opacity="0.48"/>
<path d="M5.27274 12.3333H6.36365V13.4167L5.27274 13.4166V12.3333Z" fill="white" fill-opacity="0.48"/>
<path d="M4.18182 12.3333H5.27274V13.4166H4.18182V12.3333Z" fill="white" fill-opacity="0.48"/>
<path d="M3.09091 11.25H4.18182L4.18182 12.3333L3.09091 12.3333V11.25Z" fill="white" fill-opacity="0.48"/>
<path d="M2 11.25H3.09091V12.3333H2V11.25Z" fill="white" fill-opacity="0.48"/>
<path d="M3.09091 6.91669H4.18182V8.00002H3.09091V6.91669Z" fill="white" fill-opacity="0.48"/>
<path d="M12.9091 6.91669H14V8.00002H12.9091V6.91669Z" fill="white" fill-opacity="0.48"/>
<path d="M12.9091 5.83328H14V6.91669H12.9091V5.83328Z" fill="white" fill-opacity="0.48"/>
<path d="M3.09091 5.83328H4.18182V6.91669H3.09091V5.83328Z" fill="white" fill-opacity="0.48"/>
<path d="M11.8182 2.58341H12.9091V3.66674H11.8182V2.58341Z" fill="white" fill-opacity="0.48"/>
<path d="M4.18182 2.58341H5.27273V3.66674H4.18182V2.58341Z" fill="white" fill-opacity="0.48"/>
<path d="M4.18182 1.5H5.27273V2.58341H4.18182V1.5Z" fill="white" fill-opacity="0.48"/>
<path d="M11.8182 1.5H12.9091V2.58341H11.8182V1.5Z" fill="white" fill-opacity="0.48"/>
<path d="M7.45456 9.08327H8.54547V10.1666H7.45456V9.08327Z" fill="white" fill-opacity="0.48"/>
<path d="M8.54547 9.08327H9.63635V10.1666H8.54547V9.08327Z" fill="white" fill-opacity="0.48"/>
<path d="M9.63635 11.25H10.7273V12.3333H9.63635V11.25Z" fill="white" fill-opacity="0.48"/>
<path d="M6.36365 11.25H7.45456V12.3333H6.36365V11.25Z" fill="white" fill-opacity="0.48"/>
<path d="M5.27274 9.08327H6.36364V10.1666H5.27274V9.08327Z" fill="white" fill-opacity="0.48"/>
<path d="M10.7273 9.08327H11.8182V10.1666H10.7273V9.08327Z" fill="white" fill-opacity="0.48"/>
<path d="M6.36364 9.08327H7.45456V10.1666H6.36364V9.08327Z" fill="white" fill-opacity="0.48"/>
<path d="M9.63635 9.08327H10.7273V10.1666H9.63635V9.08327Z" fill="white" fill-opacity="0.48"/>
<path d="M6.36365 2.58341H7.45456V3.66674H6.36365V2.58341Z" fill="white" fill-opacity="0.48"/>
<path d="M7.45456 10.1666H8.54547V11.25L7.45456 11.25L7.45456 10.1666Z" fill="white" fill-opacity="0.48"/>
<path d="M8.54547 10.1666H9.63635L9.63635 11.25L8.54547 11.25V10.1666Z" fill="white" fill-opacity="0.48"/>
<path d="M7.45456 2.58341H8.54547V3.66674H7.45456V2.58341Z" fill="white" fill-opacity="0.48"/>
<path d="M8.54547 2.58341H9.63635V3.66674H8.54547V2.58341Z" fill="white" fill-opacity="0.48"/>
<path d="M9.63635 2.58341H10.7273V3.66674H9.63635V2.58341Z" fill="white" fill-opacity="0.48"/>
<path d="M10.7273 1.5H11.8182V2.58341H10.7273L10.7273 1.5Z" fill="white" fill-opacity="0.48"/>
<path d="M5.27273 1.5H6.36364L6.36365 2.58341H5.27273V1.5Z" fill="white" fill-opacity="0.48"/>
<path d="M3.09091 4.74999H4.18182V5.83328H3.09091V4.74999Z" fill="white" fill-opacity="0.48"/>
<path d="M3.09091 3.66657L4.18182 3.66674L4.18182 4.74999H3.09091V3.66657Z" fill="white" fill-opacity="0.48"/>
<path d="M12.9091 3.66674L14 3.66657V4.7499H12.9091L12.9091 3.66674Z" fill="white" fill-opacity="0.48"/>
<path d="M12.9091 4.7499H14V5.83328H12.9091V4.7499Z" fill="white" fill-opacity="0.48"/>
<path d="M4.18182 8.00002L5.27273 7.99998L5.27274 9.08327L4.18182 9.08331L4.18182 8.00002Z" fill="white" fill-opacity="0.48"/>
<path d="M11.8182 7.99998L12.9091 8.00002L12.9091 9.08331L11.8182 9.08327L11.8182 7.99998Z" fill="white" fill-opacity="0.48"/>
</svg>
