<svg width="16" height="16" viewBox="0 0 16 16" fill="none" xmlns="http://www.w3.org/2000/svg">
<path d="M6 12H7V13H6V12Z" fill="white" fill-opacity="0.32"/>
<path d="M7 12H8V13H7V12Z" fill="white" fill-opacity="0.32"/>
<path d="M8 12H9V13H8V12Z" fill="white" fill-opacity="0.32"/>
<path d="M9 11H10V12H9V11Z" fill="white" fill-opacity="0.32"/>
<path d="M11 10H12V11H11V10Z" fill="white" fill-opacity="0.32"/>
<path d="M12 7H13V8H12V7Z" fill="white" fill-opacity="0.32"/>
<path d="M11 8H12V9H11V8Z" fill="white" fill-opacity="0.32"/>
<path d="M5 12H6V13H5V12Z" fill="white" fill-opacity="0.32"/>
<path d="M10 11H11V12H10V11Z" fill="white" fill-opacity="0.32"/>
<path d="M4 11H5V12H4V11Z" fill="white" fill-opacity="0.32"/>
<path d="M2 10H3V11H2V10Z" fill="white" fill-opacity="0.32"/>
<path d="M3 11H4V12H3V11Z" fill="white" fill-opacity="0.32"/>
<path d="M5 4H6V5H5V4Z" fill="white" fill-opacity="0.32"/>
<path d="M5 5H6V6H5V5Z" fill="white" fill-opacity="0.32"/>
<path d="M6 6H7V7H6V6Z" fill="white" fill-opacity="0.32"/>
<path d="M7 6H8V7H7V6Z" fill="white" fill-opacity="0.32"/>
<path d="M8 5H9V6H8V5Z" fill="white" fill-opacity="0.32"/>
<path d="M8 4H9V5H8V4Z" fill="white" fill-opacity="0.32"/>
<path d="M6 3H7V4H6V3Z" fill="white" fill-opacity="0.32"/>
<path d="M7 3H8V4H7V3Z" fill="white" fill-opacity="0.32"/>
<path d="M10 6H11V7H10V6Z" fill="white" fill-opacity="0.32"/>
<path d="M11 5H12V6H11V5Z" fill="white" fill-opacity="0.32"/>
<path d="M11 4H12V5H11V4Z" fill="white" fill-opacity="0.32"/>
<path d="M10 3H11V4H10V3Z" fill="white" fill-opacity="0.32"/>
<path d="M1 7H2V8H1V7Z" fill="white" fill-opacity="0.32"/>
<path d="M1 8H2V9H1V8Z" fill="white" fill-opacity="0.32"/>
<path d="M1 9H2V10H1V9Z" fill="white" fill-opacity="0.32"/>
<path d="M1 10H2V11H1V10Z" fill="white" fill-opacity="0.32"/>
<path d="M1 11H2V12H1V11Z" fill="white" fill-opacity="0.32"/>
<path d="M12 10H13V11H12V10Z" fill="white" fill-opacity="0.32"/>
<path d="M13 9H14V10H13V9Z" fill="white" fill-opacity="0.32"/>
<path d="M6 10H7V11H6V10Z" fill="white" fill-opacity="0.32"/>
<path d="M7 10H8V11H7V10Z" fill="white" fill-opacity="0.32"/>
<path d="M8 9H9V10H8V9Z" fill="white" fill-opacity="0.32"/>
<path d="M7 8H8V9H7V8Z" fill="white" fill-opacity="0.32"/>
<path d="M6 8H7V9H6V8Z" fill="white" fill-opacity="0.32"/>
<path d="M5 8H6V9H5V8Z" fill="white" fill-opacity="0.32"/>
<path d="M9 9H10V10H9V9Z" fill="white" fill-opacity="0.32"/>
<path d="M10 8H11V9H10V8Z" fill="white" fill-opacity="0.32"/>
<path d="M3 8H4V9H3V8Z" fill="white" fill-opacity="0.32"/>
<path d="M4 8H5V9H4V8Z" fill="white" fill-opacity="0.32"/>
<path d="M2 7H3V8H2V7Z" fill="white" fill-opacity="0.32"/>
<path d="M1 6H2V7H1V6Z" fill="white" fill-opacity="0.32"/>
<path d="M13 8H14V9H13V8Z" fill="white" fill-opacity="0.32"/>
<path d="M13 7H14V8H13V7Z" fill="white" fill-opacity="0.32"/>
</svg>
