<svg width="16" height="16" viewBox="0 0 16 16" fill="none" xmlns="http://www.w3.org/2000/svg">
<path d="M8 5H9V6H8V5Z" fill="white" fill-opacity="0.32"/>
<path d="M9 4H10V5H9V4Z" fill="white" fill-opacity="0.32"/>
<path d="M10 3H11V4H10V3Z" fill="white" fill-opacity="0.32"/>
<path d="M11 3H12V4H11V3Z" fill="white" fill-opacity="0.32"/>
<path d="M4 3H5V4H4V3Z" fill="white" fill-opacity="0.32"/>
<path d="M5 3H6V4H5V3Z" fill="white" fill-opacity="0.32"/>
<path d="M6 4H7V5H6V4Z" fill="white" fill-opacity="0.32"/>
<path d="M7 5H8V6H7V5Z" fill="white" fill-opacity="0.32"/>
<path d="M2 5H3V6H2V5Z" fill="white" fill-opacity="0.32"/>
<path d="M13 5H14V6H13V5Z" fill="white" fill-opacity="0.32"/>
<path d="M7 6H8V7H7V6Z" fill="white" fill-opacity="0.32"/>
<path d="M6 7H7V8H6V7Z" fill="white" fill-opacity="0.32"/>
<path d="M6 8H7V9H6V8Z" fill="white" fill-opacity="0.32"/>
<path d="M7 9H8V10H7V9Z" fill="white" fill-opacity="0.32"/>
<path d="M8 9H9V10H8V9Z" fill="white" fill-opacity="0.32"/>
<path d="M9 8H10V9H9V8Z" fill="white" fill-opacity="0.32"/>
<path d="M10 7H11V8H10V7Z" fill="white" fill-opacity="0.32"/>
<path d="M2 8H3V9H2V8Z" fill="white" fill-opacity="0.32"/>
<path d="M13 8H14V9H13V8Z" fill="white" fill-opacity="0.32"/>
<path d="M1 6H2V7H1V6Z" fill="white" fill-opacity="0.32"/>
<path d="M1 7H2V8H1V7Z" fill="white" fill-opacity="0.32"/>
<path d="M14 6H15V7H14V6Z" fill="white" fill-opacity="0.32"/>
<path d="M14 7H15V8H14V7Z" fill="white" fill-opacity="0.32"/>
<path d="M7 13H8V14H7V13Z" fill="white" fill-opacity="0.32"/>
<path d="M8 13H9V14H8V13Z" fill="white" fill-opacity="0.32"/>
<path d="M6 12H7V13H6V12Z" fill="white" fill-opacity="0.32"/>
<path d="M5 12H6V13H5V12Z" fill="white" fill-opacity="0.32"/>
<path d="M9 12H10V13H9V12Z" fill="white" fill-opacity="0.32"/>
<path d="M10 12H11V13H10V12Z" fill="white" fill-opacity="0.32"/>
<path d="M4 11H5V12H4V11Z" fill="white" fill-opacity="0.32"/>
<path d="M13 9H14V10H13V9Z" fill="white" fill-opacity="0.32"/>
<path d="M2 9H3V10H2V9Z" fill="white" fill-opacity="0.32"/>
<path d="M12 8H13V9H12V8Z" fill="white" fill-opacity="0.32"/>
<path d="M11 7H12V8H11V7Z" fill="white" fill-opacity="0.32"/>
<path d="M11 11H12V12H11V11Z" fill="white" fill-opacity="0.32"/>
<path d="M12 10H13V11H12V10Z" fill="white" fill-opacity="0.32"/>
<path d="M3 10H4V11H3V10Z" fill="white" fill-opacity="0.32"/>
<path d="M2 4H3V5H2V4Z" fill="white" fill-opacity="0.32"/>
<path d="M13 4H14V5H13V4Z" fill="white" fill-opacity="0.32"/>
<path d="M3 4H4V5H3V4Z" fill="white" fill-opacity="0.32"/>
<path d="M12 4H13V5H12V4Z" fill="white" fill-opacity="0.32"/>
</svg>
