<svg width="16" height="16" viewBox="0 0 16 16" fill="none" xmlns="http://www.w3.org/2000/svg">
<path d="M4.5 2H5.5V3H4.5V2Z" fill="white" fill-opacity="0.32"/>
<path d="M4.5 13H5.5V14H4.5V13Z" fill="white" fill-opacity="0.32"/>
<path d="M5.5 2H6.5V3H5.5V2Z" fill="white" fill-opacity="0.32"/>
<path d="M5.5 13H6.5V14H5.5V13Z" fill="white" fill-opacity="0.32"/>
<path d="M6.5 2H7.5V3H6.5V2Z" fill="white" fill-opacity="0.32"/>
<path d="M6.5 13H7.5V14H6.5V13Z" fill="white" fill-opacity="0.32"/>
<path d="M7.5 2H8.5V3H7.5V2Z" fill="white" fill-opacity="0.32"/>
<path d="M7.5 13H8.5V14H7.5V13Z" fill="white" fill-opacity="0.32"/>
<path d="M8.5 2H9.5V3H8.5V2Z" fill="white" fill-opacity="0.32"/>
<path d="M8.5 13H9.5V14H8.5V13Z" fill="white" fill-opacity="0.32"/>
<path d="M9.5 2H10.5V3H9.5V2Z" fill="white" fill-opacity="0.32"/>
<path d="M9.5 13H10.5V14H9.5V13Z" fill="white" fill-opacity="0.32"/>
<path d="M10.5 2H11.5V3H10.5V2Z" fill="white" fill-opacity="0.32"/>
<path d="M10.5 13H11.5V14H10.5V13Z" fill="white" fill-opacity="0.32"/>
<path d="M3.5 3H4.5V4H3.5V3Z" fill="white" fill-opacity="0.32"/>
<path d="M3.5 12H4.5V13H3.5V12Z" fill="white" fill-opacity="0.32"/>
<path d="M11.5 3H12.5V4H11.5V3Z" fill="white" fill-opacity="0.32"/>
<path d="M11.5 12H12.5V13H11.5V12Z" fill="white" fill-opacity="0.32"/>
<path d="M3.5 4H4.5V5H3.5V4Z" fill="white" fill-opacity="0.32"/>
<path d="M3.5 11H4.5V12H3.5V11Z" fill="white" fill-opacity="0.32"/>
<path d="M11.5 4H12.5V5H11.5V4Z" fill="white" fill-opacity="0.32"/>
<path d="M11.5 11H12.5V12H11.5V11Z" fill="white" fill-opacity="0.32"/>
<path d="M4.5 5H5.5V6H4.5V5Z" fill="white" fill-opacity="0.32"/>
<path d="M4.5 10H5.5V11H4.5V10Z" fill="white" fill-opacity="0.32"/>
<path d="M10.5 5H11.5V6H10.5V5Z" fill="white" fill-opacity="0.32"/>
<path d="M10.5 10H11.5V11H10.5V10Z" fill="white" fill-opacity="0.32"/>
<path d="M5.5 6H6.5V7H5.5V6Z" fill="white" fill-opacity="0.32"/>
<path d="M5.5 9H6.5V10H5.5V9Z" fill="white" fill-opacity="0.32"/>
<path d="M6.5 7H7.5V8H6.5V7Z" fill="white" fill-opacity="0.32"/>
<path d="M6.5 8H7.5V9H6.5V8Z" fill="white" fill-opacity="0.32"/>
<path d="M9.5 6H10.5V7H9.5V6Z" fill="white" fill-opacity="0.32"/>
<path d="M9.5 9H10.5V10H9.5V9Z" fill="white" fill-opacity="0.32"/>
<path d="M8.5 7H9.5V8H8.5V7Z" fill="white" fill-opacity="0.32"/>
<path d="M8.5 8H9.5V9H8.5V8Z" fill="white" fill-opacity="0.32"/>
</svg>
