<svg width="16" height="16" viewBox="0 0 16 16" fill="none" xmlns="http://www.w3.org/2000/svg">
<path d="M7 3H8V4H7V3Z" fill="white" fill-opacity="0.32"/>
<path d="M8 3H9V4H8V3Z" fill="white" fill-opacity="0.32"/>
<path d="M6 3H7V4H6V3Z" fill="white" fill-opacity="0.32"/>
<path d="M9 3H10V4H9V3Z" fill="white" fill-opacity="0.32"/>
<path d="M5 3H6V4H5V3Z" fill="white" fill-opacity="0.32"/>
<path d="M10 3H11V4H10V3Z" fill="white" fill-opacity="0.32"/>
<path d="M4 3H5V4H4V3Z" fill="white" fill-opacity="0.32"/>
<path d="M11 3H12V4H11V3Z" fill="white" fill-opacity="0.32"/>
<path d="M3 3H4V4H3V3Z" fill="white" fill-opacity="0.32"/>
<path d="M12 3H13V4H12V3Z" fill="white" fill-opacity="0.32"/>
<path d="M2 3H3V4H2V3Z" fill="white" fill-opacity="0.32"/>
<path d="M13 3H14V4H13V3Z" fill="white" fill-opacity="0.32"/>
<path d="M1 4H2V5H1V4Z" fill="white" fill-opacity="0.32"/>
<path d="M14 4H15V5H14V4Z" fill="white" fill-opacity="0.32"/>
<path d="M1 5H2V6H1V5Z" fill="white" fill-opacity="0.32"/>
<path d="M14 5H15V6H14V5Z" fill="white" fill-opacity="0.32"/>
<path d="M1 6H2V7H1V6Z" fill="white" fill-opacity="0.32"/>
<path d="M14 6H15V7H14V6Z" fill="white" fill-opacity="0.32"/>
<path d="M1 7H2V8H1V7Z" fill="white" fill-opacity="0.32"/>
<path d="M14 7H15V8H14V7Z" fill="white" fill-opacity="0.32"/>
<path d="M1 8H2V9H1V8Z" fill="white" fill-opacity="0.32"/>
<path d="M14 8H15V9H14V8Z" fill="white" fill-opacity="0.32"/>
<path d="M1 9H2V10H1V9Z" fill="white" fill-opacity="0.32"/>
<path d="M14 9H15V10H14V9Z" fill="white" fill-opacity="0.32"/>
<path d="M1 10H2V11H1V10Z" fill="white" fill-opacity="0.32"/>
<path d="M14 10H15V11H14V10Z" fill="white" fill-opacity="0.32"/>
<path d="M1 11H2V12H1V11Z" fill="white" fill-opacity="0.32"/>
<path d="M14 11H15V12H14V11Z" fill="white" fill-opacity="0.32"/>
<path d="M2 12H3V13H2V12Z" fill="white" fill-opacity="0.32"/>
<path d="M13 12H14V13H13V12Z" fill="white" fill-opacity="0.32"/>
<path d="M3 12H4V13H3V12Z" fill="white" fill-opacity="0.32"/>
<path d="M12 12H13V13H12V12Z" fill="white" fill-opacity="0.32"/>
<path d="M4 12H5V13H4V12Z" fill="white" fill-opacity="0.32"/>
<path d="M11 12H12V13H11V12Z" fill="white" fill-opacity="0.32"/>
<path d="M5 12H6V13H5V12Z" fill="white" fill-opacity="0.32"/>
<path d="M10 12H11V13H10V12Z" fill="white" fill-opacity="0.32"/>
<path d="M6 12H7V13H6V12Z" fill="white" fill-opacity="0.32"/>
<path d="M9 12H10V13H9V12Z" fill="white" fill-opacity="0.32"/>
<path d="M7 12H8V13H7V12Z" fill="white" fill-opacity="0.32"/>
<path d="M8 12H9V13H8V12Z" fill="white" fill-opacity="0.32"/>
<path d="M2 4H3V5H2V4Z" fill="white" fill-opacity="0.32"/>
<path d="M13 4H14V5H13V4Z" fill="white" fill-opacity="0.32"/>
<path d="M3 5H4V6H3V5Z" fill="white" fill-opacity="0.32"/>
<path d="M12 5H13V6H12V5Z" fill="white" fill-opacity="0.32"/>
<path d="M4 6H5V7H4V6Z" fill="white" fill-opacity="0.32"/>
<path d="M11 6H12V7H11V6Z" fill="white" fill-opacity="0.32"/>
<path d="M5 6H6V7H5V6Z" fill="white" fill-opacity="0.32"/>
<path d="M10 6H11V7H10V6Z" fill="white" fill-opacity="0.32"/>
<path d="M6 7H7V8H6V7Z" fill="white" fill-opacity="0.32"/>
<path d="M9 7H10V8H9V7Z" fill="white" fill-opacity="0.32"/>
<path d="M7 8H8V9H7V8Z" fill="white" fill-opacity="0.32"/>
<path d="M8 8H9V9H8V8Z" fill="white" fill-opacity="0.32"/>
</svg>
