<svg width="16" height="16" viewBox="0 0 16 16" fill="none" xmlns="http://www.w3.org/2000/svg">
<path d="M3.33333 3.72222H4.5V4.94444H3.33333V3.72222Z" fill="white" fill-opacity="0.32"/>
<path d="M3.33333 4.94444H4.5V6.16667H3.33333V4.94444Z" fill="white" fill-opacity="0.32"/>
<path d="M4.5 2.5H5.66667V3.72222H4.5V2.5Z" fill="white" fill-opacity="0.32"/>
<path d="M5.66667 2.5H6.83333V3.72222H5.66667V2.5Z" fill="white" fill-opacity="0.32"/>
<path d="M6.83333 3.72222H8V4.94444H6.83333V3.72222Z" fill="white" fill-opacity="0.32"/>
<path d="M6.83333 4.94444H8V6.16667H6.83333V4.94444Z" fill="white" fill-opacity="0.32"/>
<path d="M4.5 6.16667H5.66667V7.38889H4.5V6.16667Z" fill="white" fill-opacity="0.32"/>
<path d="M5.66667 6.16667H6.83333V7.38889H5.66667V6.16667Z" fill="white" fill-opacity="0.32"/>
<path d="M4.5 8.61111H5.66667V9.83333H4.5V8.61111Z" fill="white" fill-opacity="0.32"/>
<path d="M5.66667 8.61111H6.83333V9.83333H5.66667V8.61111Z" fill="white" fill-opacity="0.32"/>
<path d="M3.33333 8.61111H4.5V9.83333H3.33333V8.61111Z" fill="white" fill-opacity="0.32"/>
<path d="M6.83333 8.61111H8V9.83333H6.83333V8.61111Z" fill="white" fill-opacity="0.32"/>
<path d="M2.16667 9.83333H3.33333V11.0556H2.16667V9.83333Z" fill="white" fill-opacity="0.32"/>
<path d="M1 9.83333H2.16667V11.0556H1V9.83333Z" fill="white" fill-opacity="0.32"/>
<path d="M8 9.83333H9.16667V11.0556H8V9.83333Z" fill="white" fill-opacity="0.32"/>
<path d="M9.16667 9.83333H10.3333V11.0556H9.16667V9.83333Z" fill="white" fill-opacity="0.32"/>
<path d="M8 8.61111H9.16667V9.83333H8V8.61111Z" fill="white" fill-opacity="0.32"/>
<path d="M2.16667 8.61111H3.33333V9.83333H2.16667V8.61111Z" fill="white" fill-opacity="0.32"/>
<path d="M1 11.0556H2.16667V12.2778H1V11.0556Z" fill="white" fill-opacity="0.32"/>
<path d="M9.16667 11.0556H10.3333V12.2778H9.16667V11.0556Z" fill="white" fill-opacity="0.32"/>
<path d="M9.16667 2.5H10.3333V3.72222H9.16667V2.5Z" fill="white" fill-opacity="0.32"/>
<path d="M10.3333 2.5H11.5V3.72222H10.3333V2.5Z" fill="white" fill-opacity="0.32"/>
<path d="M11.5 3.72222H12.6667V4.94444H11.5V3.72222Z" fill="white" fill-opacity="0.32"/>
<path d="M11.5 4.94444H12.6667V6.16667H11.5V4.94444Z" fill="white" fill-opacity="0.32"/>
<path d="M10.3333 6.16667H11.5V7.38889H10.3333V6.16667Z" fill="white" fill-opacity="0.32"/>
<path d="M9.16667 6.16667H10.3333V7.38889H9.16667V6.16667Z" fill="white" fill-opacity="0.32"/>
<path d="M11.5 8.61111H12.6667V9.83333H11.5V8.61111Z" fill="white" fill-opacity="0.32"/>
<path d="M12.6667 8.61111H13.8333V9.83333H12.6667V8.61111Z" fill="white" fill-opacity="0.32"/>
<path d="M13.8333 9.83333H15V11.0556H13.8333V9.83333Z" fill="white" fill-opacity="0.32"/>
<path d="M13.8333 11.0556H15V12.2778H13.8333V11.0556Z" fill="white" fill-opacity="0.32"/>
<path d="M12.6667 9.83333H13.8333V11.0556H12.6667V9.83333Z" fill="white" fill-opacity="0.32"/>
<path d="M2.16667 12.2778H3.33333V13.5H2.16667V12.2778Z" fill="white" fill-opacity="0.32"/>
<path d="M3.33333 12.2778H4.5V13.5H3.33333V12.2778Z" fill="white" fill-opacity="0.32"/>
<path d="M4.5 12.2778H5.66667V13.5H4.5V12.2778Z" fill="white" fill-opacity="0.32"/>
<path d="M5.66667 12.2778H6.83333V13.5H5.66667V12.2778Z" fill="white" fill-opacity="0.32"/>
<path d="M6.83333 12.2778H8V13.5H6.83333V12.2778Z" fill="white" fill-opacity="0.32"/>
<path d="M8 12.2778H9.16667V13.5H8V12.2778Z" fill="white" fill-opacity="0.32"/>
<path d="M12.6667 12.2778H13.8333V13.5H12.6667V12.2778Z" fill="white" fill-opacity="0.32"/>
<path d="M11.5 12.2778H12.6667V13.5H11.5V12.2778Z" fill="white" fill-opacity="0.32"/>
</svg>
