<svg width="16" height="16" viewBox="0 0 16 16" fill="none" xmlns="http://www.w3.org/2000/svg">
<path d="M6.5 1.5H7.5V2.5H6.5V1.5Z" fill="white" fill-opacity="0.32"/>
<path d="M7.5 1.5H8.5V2.5H7.5V1.5Z" fill="white" fill-opacity="0.32"/>
<path d="M8.5 1.5H9.5V2.5H8.5V1.5Z" fill="white" fill-opacity="0.32"/>
<path d="M5.5 2.5H6.5V3.5H5.5V2.5Z" fill="white" fill-opacity="0.32"/>
<path d="M4.5 3.5H5.5V4.5H4.5V3.5Z" fill="white" fill-opacity="0.32"/>
<path d="M4.5 4.5H5.5V5.5H4.5V4.5Z" fill="white" fill-opacity="0.32"/>
<path d="M9.5 2.5H10.5V3.5H9.5V2.5Z" fill="white" fill-opacity="0.32"/>
<path d="M10.5 3.5H11.5V4.5H10.5V3.5Z" fill="white" fill-opacity="0.32"/>
<path d="M10.5 4.5H11.5V5.5H10.5V4.5Z" fill="white" fill-opacity="0.32"/>
<path d="M9.5 5.5H10.5V6.5H9.5V5.5Z" fill="white" fill-opacity="0.32"/>
<path d="M7.5 7.5H8.5V8.5H7.5V7.5Z" fill="white" fill-opacity="0.32"/>
<path d="M7.5 8.5H8.5V9.5H7.5V8.5Z" fill="white" fill-opacity="0.32"/>
<path d="M7.5 9.5H8.5V10.5H7.5V9.5Z" fill="white" fill-opacity="0.32"/>
<path d="M8.5 6.5H9.5V7.5H8.5V6.5Z" fill="white" fill-opacity="0.32"/>
<path d="M7.5 11.5H8.5V12.5H7.5V11.5Z" fill="white" fill-opacity="0.32"/>
<path d="M6.5 12.5H7.5V13.5H6.5V12.5Z" fill="white" fill-opacity="0.32"/>
<path d="M7.5 13.5H8.5V14.5H7.5V13.5Z" fill="white" fill-opacity="0.32"/>
<path d="M8.5 12.5H9.5V13.5H8.5V12.5Z" fill="white" fill-opacity="0.32"/>
</svg>
