<svg width="16" height="16" viewBox="0 0 16 16" fill="#fbf1b8" xmlns="http://www.w3.org/2000/svg">
<path d="M3 3H4V4H3V3Z"/>
<path d="M4 3H5V4H4V3Z"/>
<path d="M5 3H6V4H5V3Z"/>
<path d="M6 3H7V4H6V3Z"/>
<path d="M7 3H8V4H7V3Z"/>
<path d="M8 3H9V4H8V3Z"/>
<path d="M9 3H10V4H9V3Z"/>
<path d="M10 3H11V4H10V3Z"/>
<path d="M11 3H12V4H11V3Z"/>
<path d="M12 3H13V4H12V3Z"/>
<path d="M2 4H3V5H2V4Z"/>
<path d="M2 3H3V4H2V3Z"/>
<path d="M13 3H14V4H13V3Z"/>
<path d="M13 4H14V5H13V4Z"/>
<path d="M12 4H13V5H12V4Z"/>
<path d="M11 4H12V5H11V4Z"/>
<path d="M10 4H11V5H10V4Z"/>
<path d="M3 4H4V5H3V4Z"/>
<path d="M4 4H5V5H4V4Z"/>
<path d="M5 4H6V5H5V4Z"/>
<path d="M6 4H7V5H6V4Z"/>
<path d="M7 4H8V5H7V4Z"/>
<path d="M8 4H9V5H8V4Z"/>
<path d="M9 4H10V5H9V4Z"/>
<path d="M2 7H3V8H2V7Z"/>
<path d="M3 7H4V8H3V7Z"/>
<path d="M4 7H5V8H4V7Z"/>
<path d="M5 7H6V8H5V7Z"/>
<path d="M6 7H7V8H6V7Z"/>
<path d="M7 7H8V8H7V7Z"/>
<path d="M7 8H8V9H7V8Z"/>
<path d="M6 8H7V9H6V8Z"/>
<path d="M5 8H6V9H5V8Z"/>
<path d="M4 8H5V9H4V8Z"/>
<path d="M3 8H4V9H3V8Z"/>
<path d="M2 8H3V9H2V8Z"/>
<path d="M2 11H3V12H2V11Z"/>
<path d="M3 11H4V12H3V11Z"/>
<path d="M4 11H5V12H4V11Z"/>
<path d="M5 11H6V12H5V11Z"/>
<path d="M6 11H7V12H6V11Z"/>
<path d="M7 11H8V12H7V11Z"/>
<path d="M7 12H8V13H7V12Z"/>
<path d="M6 12H7V13H6V12Z"/>
<path d="M5 12H6V13H5V12Z"/>
<path d="M4 12H5V13H4V12Z"/>
<path d="M3 12H4V13H3V12Z"/>
<path d="M2 12H3V13H2V12Z"/>
<path d="M9 9H10V10H9V9Z"/>
<path d="M13 9H14V10H13V9Z"/>
<path d="M13 12H14V13H13V12Z"/>
<path d="M14 13H15V14H14V13Z"/>
<path d="M10 11H11V12H10V11Z"/>
<path d="M11 11H12V12H11V11Z"/>
<path d="M9 10H10V11H9V10Z"/>
<path d="M13 10H14V11H13V10Z"/>
<path d="M10 7H11V8H10V7Z"/>
<path d="M11 7H12V8H11V7Z"/>
<path d="M12 7H13V8H12V7Z"/>
<path d="M13 8H14V9H13V8Z"/>
<path d="M9 8H10V9H9V8Z"/>
<path d="M12 11H13V12H12V11Z"/>
</svg>
