<svg width="16" height="16" viewBox="0 0 16 16" fill="none" xmlns="http://www.w3.org/2000/svg">
<path d="M12 2H13V3H12V2Z" fill="white" fill-opacity="0.32"/>
<path d="M13 2H14V3H13V2Z" fill="white" fill-opacity="0.32"/>
<path d="M13 3H14V4H13V3Z" fill="white" fill-opacity="0.32"/>
<path d="M11 2H12V3H11V2Z" fill="white" fill-opacity="0.32"/>
<path d="M13 4H14V5H13V4Z" fill="white" fill-opacity="0.32"/>
<path d="M10 3H11V4H10V3Z" fill="white" fill-opacity="0.32"/>
<path d="M9 3H10V4H9V3Z" fill="white" fill-opacity="0.32"/>
<path d="M8 4H9V5H8V4Z" fill="white" fill-opacity="0.32"/>
<path d="M7 4H8V5H7V4Z" fill="white" fill-opacity="0.32"/>
<path d="M6 5H7V6H6V5Z" fill="white" fill-opacity="0.32"/>
<path d="M5 5H6V6H5V5Z" fill="white" fill-opacity="0.32"/>
<path d="M4 6H5V7H4V6Z" fill="white" fill-opacity="0.32"/>
<path d="M3 6H4V7H3V6Z" fill="white" fill-opacity="0.32"/>
<path d="M2 7H3V8H2V7Z" fill="white" fill-opacity="0.32"/>
<path d="M2 8H3V9H2V8Z" fill="white" fill-opacity="0.32"/>
<path d="M3 9H4V10H3V9Z" fill="white" fill-opacity="0.32"/>
<path d="M4 10H5V11H4V10Z" fill="white" fill-opacity="0.32"/>
<path d="M5 9H6V10H5V9Z" fill="white" fill-opacity="0.32"/>
<path d="M6 8H7V9H6V8Z" fill="white" fill-opacity="0.32"/>
<path d="M7 7H8V8H7V7Z" fill="white" fill-opacity="0.32"/>
<path d="M6 10H7V11H6V10Z" fill="white" fill-opacity="0.32"/>
<path d="M7 11H8V12H7V11Z" fill="white" fill-opacity="0.32"/>
<path d="M9 12H10V13H9V12Z" fill="white" fill-opacity="0.32"/>
<path d="M10 12H11V13H10V12Z" fill="white" fill-opacity="0.32"/>
<path d="M9 6H10V7H9V6Z" fill="white" fill-opacity="0.32"/>
<path d="M13 5H14V6H13V5Z" fill="white" fill-opacity="0.32"/>
<path d="M12 6H13V7H12V6Z" fill="white" fill-opacity="0.32"/>
<path d="M12 7H13V8H12V7Z" fill="white" fill-opacity="0.32"/>
<path d="M12 8H13V9H12V8Z" fill="white" fill-opacity="0.32"/>
<path d="M11 9H12V10H11V9Z" fill="white" fill-opacity="0.32"/>
<path d="M11 11H12V12H11V11Z" fill="white" fill-opacity="0.32"/>
<path d="M11 10H12V11H11V10Z" fill="white" fill-opacity="0.32"/>
<path d="M8 11H9V12H8V11Z" fill="white" fill-opacity="0.32"/>
<path d="M8 7H9V8H8V7Z" fill="white" fill-opacity="0.32"/>
</svg>
