<svg width="54" height="54" viewBox="0 0 54 54" fill="none" xmlns="http://www.w3.org/2000/svg">
<path d="M19.5 0.75H23.25V4.5H19.5V0.75Z" fill="#FBF1B8"/>
<path d="M23.25 0.75H27V4.5H23.25V0.75Z" fill="#FBF1B8"/>
<path d="M27 0.75H30.75V4.5H27V0.75Z" fill="#FBF1B8"/>
<path d="M0.75 23.25H4.5V27H0.75V23.25Z" fill="#FBF1B8"/>
<path d="M0.75 27H4.5V30.75H0.75V27Z" fill="#FBF1B8"/>
<path d="M0.75 30.75H4.5V34.5H0.75V30.75Z" fill="#FBF1B8"/>
<path d="M49.5 23.25H53.25V27H49.5V23.25Z" fill="#FBF1B8"/>
<path d="M49.5 27H53.25V30.75H49.5V27Z" fill="#FBF1B8"/>
<path d="M49.5 30.75H53.25V34.5H49.5V30.75Z" fill="#FBF1B8"/>
<path d="M23.25 49.5H27V53.25H23.25V49.5Z" fill="#FBF1B8"/>
<path d="M27 49.5H30.75V53.25H27V49.5Z" fill="#FBF1B8"/>
<path d="M19.5 49.5H23.25V53.25H19.5V49.5Z" fill="#FBF1B8"/>
<path d="M30.75 49.5H34.5V53.25H30.75V49.5Z" fill="#FBF1B8"/>
<path d="M30.75 0.75H34.5V4.5H30.75V0.75Z" fill="#FBF1B8"/>
<path d="M4.5 34.5H8.25V38.25H4.5V34.5Z" fill="#FBF1B8"/>
<path d="M4.5 38.25H8.25V42H4.5V38.25Z" fill="#FBF1B8"/>
<path d="M8.25 42H12V45.75H8.25V42Z" fill="#FBF1B8"/>
<path d="M12 45.75H15.75V49.5H12V45.75Z" fill="#FBF1B8"/>
<path d="M15.75 45.75H19.5V49.5H15.75V45.75Z" fill="#FBF1B8"/>
<path d="M34.5 45.75H38.25V49.5H34.5V45.75Z" fill="#FBF1B8"/>
<path d="M38.25 45.75H42V49.5H38.25V45.75Z" fill="#FBF1B8"/>
<path d="M42 42H45.75V45.75H42V42Z" fill="#FBF1B8"/>
<path d="M45.75 38.25H49.5V42H45.75V38.25Z" fill="#FBF1B8"/>
<path d="M45.75 34.5H49.5V38.25H45.75V34.5Z" fill="#FBF1B8"/>
<path d="M0.75 19.5H4.5V23.25H0.75V19.5Z" fill="#FBF1B8"/>
<path d="M49.5 19.5H53.25V23.25H49.5V19.5Z" fill="#FBF1B8"/>
<path d="M4.5 15.75H8.25V19.5H4.5V15.75Z" fill="#FBF1B8"/>
<path d="M4.5 12H8.25V15.75H4.5V12Z" fill="#FBF1B8"/>
<path d="M8.25 8.25H12V12H8.25V8.25Z" fill="#FBF1B8"/>
<path d="M12 4.5H15.75V8.25H12V4.5Z" fill="#FBF1B8"/>
<path d="M15.75 4.5H19.5V8.25H15.75V4.5Z" fill="#FBF1B8"/>
<path d="M45.75 15.75H49.5V19.5H45.75V15.75Z" fill="#FBF1B8"/>
<path d="M45.75 12H49.5V15.75H45.75V12Z" fill="#FBF1B8"/>
<path d="M42 8.25H45.75V12H42V8.25Z" fill="#FBF1B8"/>
<path d="M38.25 4.5H42V8.25H38.25V4.5Z" fill="#FBF1B8"/>
<path d="M34.5 4.5H38.25V8.25H34.5V4.5Z" fill="#FBF1B8"/>
<path d="M19.5 4.5H23.25V8.25H19.5V4.5Z" fill="#FBF1B8"/>
<path d="M19.5 45.75H23.25V49.5H19.5V45.75Z" fill="#FBF1B8"/>
<path d="M30.75 4.5H34.5V8.25H30.75V4.5Z" fill="#FBF1B8"/>
<path d="M30.75 45.75H34.5V49.5H30.75V45.75Z" fill="#FBF1B8"/>
<path d="M30.75 8.25H34.5V12H30.75V8.25Z" fill="#FBF1B8"/>
<path d="M30.75 42H34.5V45.75H30.75V42Z" fill="#FBF1B8"/>
<path d="M30.75 12H34.5V15.75H30.75V12Z" fill="#FBF1B8"/>
<path d="M30.75 38.25H34.5V42H30.75V38.25Z" fill="#FBF1B8"/>
<path d="M30.75 15.75H34.5V19.5H30.75V15.75Z" fill="#FBF1B8"/>
<path d="M30.75 34.5H34.5V38.25H30.75V34.5Z" fill="#FBF1B8"/>
<path d="M27 15.75H30.75V19.5H27V15.75Z" fill="#FBF1B8"/>
<path d="M27 34.5H30.75V38.25H27V34.5Z" fill="#FBF1B8"/>
<path d="M27 12H30.75V15.75H27V12Z" fill="#FBF1B8"/>
<path d="M27 38.25H30.75V42H27V38.25Z" fill="#FBF1B8"/>
<path d="M27 8.25H30.75V12H27V8.25Z" fill="#FBF1B8"/>
<path d="M27 42H30.75V45.75H27V42Z" fill="#FBF1B8"/>
<path d="M23.25 12H27V15.75H23.25V12Z" fill="#FBF1B8"/>
<path d="M23.25 38.25H27V42H23.25V38.25Z" fill="#FBF1B8"/>
<path d="M19.5 12H23.25V15.75H19.5V12Z" fill="#FBF1B8"/>
<path d="M19.5 38.25H23.25V42H19.5V38.25Z" fill="#FBF1B8"/>
<path d="M19.5 15.75H23.25V19.5H19.5V15.75Z" fill="#FBF1B8"/>
<path d="M15.75 15.75H19.5V19.5H15.75V15.75Z" fill="#FBF1B8"/>
<path d="M15.75 34.5H19.5V38.25H15.75V34.5Z" fill="#FBF1B8"/>
<path d="M12 15.75H15.75V19.5H12V15.75Z" fill="#FBF1B8"/>
<path d="M12 34.5H15.75V38.25H12V34.5Z" fill="#FBF1B8"/>
<path d="M12 19.5H15.75V23.25H12V19.5Z" fill="#FBF1B8"/>
<path d="M12 30.75H15.75V34.5H12V30.75Z" fill="#FBF1B8"/>
<path d="M12 23.25H15.75V27H12V23.25Z" fill="#FBF1B8"/>
<path d="M15.75 23.25H19.5V27H15.75V23.25Z" fill="#FBF1B8"/>
<path d="M15.75 27H19.5V30.75H15.75V27Z" fill="#FBF1B8"/>
<path d="M19.5 19.5H23.25V23.25H19.5V19.5Z" fill="#FBF1B8"/>
<path d="M19.5 30.75H23.25V34.5H19.5V30.75Z" fill="#FBF1B8"/>
<path d="M15.75 19.5H19.5V23.25H15.75V19.5Z" fill="#FBF1B8"/>
<path d="M19.5 23.25H23.25V27H19.5V23.25Z" fill="#FBF1B8"/>
<path d="M19.5 27H23.25V30.75H19.5V27Z" fill="#FBF1B8"/>
<path d="M23.25 27H27V30.75H23.25V27Z" fill="#FBF1B8"/>
<path d="M23.25 34.5H27V38.25H23.25V34.5Z" fill="#FBF1B8"/>
<path d="M27 30.75H30.75V34.5H27V30.75Z" fill="#FBF1B8"/>
<path d="M27 23.25H30.75V27H27V23.25Z" fill="#FBF1B8"/>
<path d="M27 19.5H30.75V23.25H27V19.5Z" fill="#FBF1B8"/>
<path d="M30.75 19.5H34.5V23.25H30.75V19.5Z" fill="#FBF1B8"/>
<path d="M30.75 27H34.5V30.75H30.75V27Z" fill="#FBF1B8"/>
<path d="M30.75 30.75H34.5V34.5H30.75V30.75Z" fill="#FBF1B8"/>
<path d="M34.5 30.75H38.25V34.5H34.5V30.75Z" fill="#FBF1B8"/>
<path d="M34.5 34.5H38.25V38.25H34.5V34.5Z" fill="#FBF1B8"/>
<path d="M34.5 38.25H38.25V42H34.5V38.25Z" fill="#FBF1B8"/>
<path d="M34.5 42H38.25V45.75H34.5V42Z" fill="#FBF1B8"/>
<path d="M38.25 42H42V45.75H38.25V42Z" fill="#FBF1B8"/>
<path d="M38.25 38.25H42V42H38.25V38.25Z" fill="#FBF1B8"/>
<path d="M38.25 34.5H42V38.25H38.25V34.5Z" fill="#FBF1B8"/>
<path d="M38.25 30.75H42V34.5H38.25V30.75Z" fill="#FBF1B8"/>
<path d="M38.25 27H42V30.75H38.25V27Z" fill="#FBF1B8"/>
<path d="M38.25 23.25H42V27H38.25V23.25Z" fill="#FBF1B8"/>
<path d="M38.25 19.5H42V23.25H38.25V19.5Z" fill="#FBF1B8"/>
<path d="M38.25 15.75H42V19.5H38.25V15.75Z" fill="#FBF1B8"/>
<path d="M38.25 12H42V15.75H38.25V12Z" fill="#FBF1B8"/>
<path d="M38.25 8.25H42V12H38.25V8.25Z" fill="#FBF1B8"/>
<path d="M34.5 8.25H38.25V12H34.5V8.25Z" fill="#FBF1B8"/>
<path d="M34.5 12H38.25V15.75H34.5V12Z" fill="#FBF1B8"/>
<path d="M34.5 15.75H38.25V19.5H34.5V15.75Z" fill="#FBF1B8"/>
<path d="M34.5 23.25H38.25V27H34.5V23.25Z" fill="#FBF1B8"/>
<path d="M34.5 27H38.25V30.75H34.5V27Z" fill="#FBF1B8"/>
<path d="M42 12H45.75V15.75H42V12Z" fill="#FBF1B8"/>
<path d="M42 15.75H45.75V19.5H42V15.75Z" fill="#FBF1B8"/>
<path d="M42 19.5H45.75V23.25H42V19.5Z" fill="#FBF1B8"/>
<path d="M42 23.25H45.75V27H42V23.25Z" fill="#FBF1B8"/>
<path d="M42 27H45.75V30.75H42V27Z" fill="#FBF1B8"/>
<path d="M42 30.75H45.75V34.5H42V30.75Z" fill="#FBF1B8"/>
<path d="M42 34.5H45.75V38.25H42V34.5Z" fill="#FBF1B8"/>
<path d="M42 38.25H45.75V42H42V38.25Z" fill="#FBF1B8"/>
<path d="M45.75 30.75H49.5V34.5H45.75V30.75Z" fill="#FBF1B8"/>
<path d="M45.75 27H49.5V30.75H45.75V27Z" fill="#FBF1B8"/>
<path d="M45.75 23.25H49.5V27H45.75V23.25Z" fill="#FBF1B8"/>
<path d="M45.75 19.5H49.5V23.25H45.75V19.5Z" fill="#FBF1B8"/>
<path d="M23.25 19.5H27V23.25H23.25V19.5Z" fill="#FBF1B8"/>
<path d="M23.25 23.25H27V27H23.25V23.25Z" fill="#FBF1B8"/>
<path d="M23.25 15.75H27V19.5H23.25V15.75Z" fill="#FBF1B8"/>
<path d="M12 12H15.75V15.75H12V12Z" fill="#FBF1B8"/>
<path d="M12 8.25H15.75V12H12V8.25Z" fill="#FBF1B8"/>
<path d="M15.75 8.25H19.5V12H15.75V8.25Z" fill="#FBF1B8"/>
<path d="M15.75 12H19.5V15.75H15.75V12Z" fill="#FBF1B8"/>
<path d="M19.5 8.25H23.25V12H19.5V8.25Z" fill="#FBF1B8"/>
<path d="M23.25 8.25H27V12H23.25V8.25Z" fill="#FBF1B8"/>
<path d="M23.25 4.5H27V8.25H23.25V4.5Z" fill="#FBF1B8"/>
<path d="M27 4.5H30.75V8.25H27V4.5Z" fill="#FBF1B8"/>
<path d="M8.25 12H12V15.75H8.25V12Z" fill="#FBF1B8"/>
<path d="M8.25 15.75H12V19.5H8.25V15.75Z" fill="#FBF1B8"/>
<path d="M8.25 19.5H12V23.25H8.25V19.5Z" fill="#FBF1B8"/>
<path d="M8.25 23.25H12V27H8.25V23.25Z" fill="#FBF1B8"/>
<path d="M8.25 27H12V30.75H8.25V27Z" fill="#FBF1B8"/>
<path d="M8.25 30.75H12V34.5H8.25V30.75Z" fill="#FBF1B8"/>
<path d="M8.25 34.5H12V38.25H8.25V34.5Z" fill="#FBF1B8"/>
<path d="M8.25 38.25H12V42H8.25V38.25Z" fill="#FBF1B8"/>
<path d="M12 38.25H15.75V42H12V38.25Z" fill="#FBF1B8"/>
<path d="M12 42H15.75V45.75H12V42Z" fill="#FBF1B8"/>
<path d="M15.75 42H19.5V45.75H15.75V42Z" fill="#FBF1B8"/>
<path d="M15.75 38.25H19.5V42H15.75V38.25Z" fill="#FBF1B8"/>
<path d="M19.5 42H23.25V45.75H19.5V42Z" fill="#FBF1B8"/>
<path d="M23.25 42H27V45.75H23.25V42Z" fill="#FBF1B8"/>
<path d="M23.25 45.75H27V49.5H23.25V45.75Z" fill="#FBF1B8"/>
<path d="M27 45.75H30.75V49.5H27V45.75Z" fill="#FBF1B8"/>
<path d="M4.5 30.75H8.25V34.5H4.5V30.75Z" fill="#FBF1B8"/>
<path d="M4.5 27H8.25V30.75H4.5V27Z" fill="#FBF1B8"/>
<path d="M4.5 23.25H8.25V27H4.5V23.25Z" fill="#FBF1B8"/>
<path d="M4.5 19.5H8.25V23.25H4.5V19.5Z" fill="#FBF1B8"/>
<path d="M12 27H15.75V30.75H12V27Z" fill="#FBF1B8"/>
<path d="M15.75 30.75H19.5V34.5H15.75V30.75Z" fill="#FBF1B8"/>
<path d="M19.5 34.5H23.25V38.25H19.5V34.5Z" fill="#FBF1B8"/>
<path d="M23.25 30.75H27V34.5H23.25V30.75Z" fill="#FBF1B8"/>
<path d="M27 27H30.75V30.75H27V27Z" fill="#FBF1B8"/>
<path d="M30.75 23.25H34.5V27H30.75V23.25Z" fill="#FBF1B8"/>
<path d="M34.5 19.5H38.25V23.25H34.5V19.5Z" fill="#FBF1B8"/>
<path d="M21.375 32.625H25.125V36.375H21.375V32.625Z" fill="black"/>
<path d="M13.875 25.125H17.625V28.875H13.875V25.125Z" fill="black"/>
<path d="M17.625 28.875H21.375V32.625H17.625V28.875Z" fill="black"/>
<path d="M25.125 28.875H28.875V32.625H25.125V28.875Z" fill="black"/>
<path d="M28.875 25.125H32.625V28.875H28.875V25.125Z" fill="black"/>
<path d="M32.625 21.375H36.375V25.125H32.625V21.375Z" fill="black"/>
<path d="M36.375 17.625H40.125V21.375H36.375V17.625Z" fill="black"/>
</svg>
