<svg width="16" height="16" viewBox="0 0 16 16" fill="none" xmlns="http://www.w3.org/2000/svg">
<path d="M5.5 8H6.5V9H5.5V8Z" fill="#97A0F1"/>
<path d="M6.5 9H7.5V10H6.5V9Z" fill="#97A0F1"/>
<path d="M7.5 8H8.5V9H7.5V8Z" fill="#97A0F1"/>
<path d="M8.5 7H9.5V8H8.5V7Z" fill="#97A0F1"/>
<path d="M9.5 6H10.5V7H9.5V6Z" fill="#97A0F1"/>
<path d="M6 13H7V14H6V13Z" fill="#97A0F1"/>
<path d="M5 13H6V14H5V13Z" fill="#97A0F1"/>
<path d="M9 13H10V14H9V13Z" fill="#97A0F1"/>
<path d="M10 13H11V14H10V13Z" fill="#97A0F1"/>
<path d="M11 13H12V14H11V13Z" fill="#97A0F1"/>
<path d="M11 12H12V13H11V12Z" fill="#97A0F1"/>
<path d="M4 13H5V14H4V13Z" fill="#97A0F1"/>
<path d="M4 12H5V13H4V12Z" fill="#97A0F1"/>
<path d="M1 7H2V8H1V7Z" fill="#97A0F1"/>
<path d="M1 8H2V9H1V8Z" fill="#97A0F1"/>
<path d="M14 7H15V8H14V7Z" fill="#97A0F1"/>
<path d="M14 8H15V9H14V8Z" fill="#97A0F1"/>
<path d="M2 9H3V10H2V9Z" fill="#97A0F1"/>
<path d="M13 9H14V10H13V9Z" fill="#97A0F1"/>
<path d="M2 10H3V11H2V10Z" fill="#97A0F1"/>
<path d="M13 10H14V11H13V10Z" fill="#97A0F1"/>
<path d="M3 11H4V12H3V11Z" fill="#97A0F1"/>
<path d="M12 11H13V12H12V11Z" fill="#97A0F1"/>
<path d="M2 6H3V7H2V6Z" fill="#97A0F1"/>
<path d="M2 5H3V6H2V5Z" fill="#97A0F1"/>
<path d="M3 4H4V5H3V4Z" fill="#97A0F1"/>
<path d="M4 3H5V4H4V3Z" fill="#97A0F1"/>
<path d="M4 2H5V3H4V2Z" fill="#97A0F1"/>
<path d="M5 2H6V3H5V2Z" fill="#97A0F1"/>
<path d="M6 2H7V3H6V2Z" fill="#97A0F1"/>
<path d="M7 1H8V2H7V1Z" fill="#97A0F1"/>
<path d="M8 1H9V2H8V1Z" fill="#97A0F1"/>
<path d="M7 14H8V15H7V14Z" fill="#97A0F1"/>
<path d="M8 14H9V15H8V14Z" fill="#97A0F1"/>
<path d="M9 2H10V3H9V2Z" fill="#97A0F1"/>
<path d="M10 2H11V3H10V2Z" fill="#97A0F1"/>
<path d="M11 2H12V3H11V2Z" fill="#97A0F1"/>
<path d="M11 3H12V4H11V3Z" fill="#97A0F1"/>
<path d="M12 4H13V5H12V4Z" fill="#97A0F1"/>
<path d="M13 5H14V6H13V5Z" fill="#97A0F1"/>
<path d="M13 6H14V7H13V6Z" fill="#97A0F1"/>
<path d="M2 11H3V12H2V11Z" fill="#97A0F1"/>
<path d="M2 4H3V5H2V4Z" fill="#97A0F1"/>
<path d="M13 4H14V5H13V4Z" fill="#97A0F1"/>
<path d="M13 11H14V12H13V11Z" fill="#97A0F1"/>
</svg>
