<svg width="16" height="16" viewBox="0 0 16 16" fill="none" xmlns="http://www.w3.org/2000/svg">
<path d="M2 1.5H3.09091V2.42857H2V1.5Z" fill="white" fill-opacity="0.48"/>
<path d="M2 2.42857H3.09091V3.35714H2V2.42857Z" fill="white" fill-opacity="0.48"/>
<path d="M3.09091 1.5H4.18182V2.42857H3.09091V1.5Z" fill="white" fill-opacity="0.48"/>
<path d="M4.18182 1.5H5.27273V2.42857H4.18182V1.5Z" fill="white" fill-opacity="0.48"/>
<path d="M12.9091 13.5714H14V14.5H12.9091V13.5714Z" fill="white" fill-opacity="0.48"/>
<path d="M11.8182 13.5714H12.9091V14.5H11.8182V13.5714Z" fill="white" fill-opacity="0.48"/>
<path d="M3.09091 3.35714H4.18182V4.28571H3.09091V3.35714Z" fill="white" fill-opacity="0.48"/>
<path d="M3.09091 4.28571H4.18182V5.21429H3.09091V4.28571Z" fill="white" fill-opacity="0.48"/>
<path d="M4.18182 5.21429H5.27273V6.14286H4.18182V5.21429Z" fill="white" fill-opacity="0.48"/>
<path d="M5.27273 6.14286H6.36364V7.07143H5.27273V6.14286Z" fill="white" fill-opacity="0.48"/>
<path d="M5.27273 7.07143H6.36364V8H5.27273V7.07143Z" fill="white" fill-opacity="0.48"/>
<path d="M6.36364 8H7.45455V8.92857H6.36364V8Z" fill="white" fill-opacity="0.48"/>
<path d="M7.45455 8.92857H8.54545V9.85714H7.45455V8.92857Z" fill="white" fill-opacity="0.48"/>
<path d="M7.45455 9.85714H8.54545V10.7857H7.45455V9.85714Z" fill="white" fill-opacity="0.48"/>
<path d="M8.54545 10.7857H9.63636V11.7143H8.54545V10.7857Z" fill="white" fill-opacity="0.48"/>
<path d="M9.63636 11.7143H10.7273V12.6429H9.63636V11.7143Z" fill="white" fill-opacity="0.48"/>
<path d="M9.63636 12.6429H10.7273V13.5714H9.63636V12.6429Z" fill="white" fill-opacity="0.48"/>
<path d="M10.7273 13.5714H11.8182V14.5H10.7273V13.5714Z" fill="white" fill-opacity="0.48"/>
<path d="M12.9091 12.6429H14V13.5714H12.9091V12.6429Z" fill="white" fill-opacity="0.48"/>
<path d="M11.8182 11.7143H12.9091V12.6429H11.8182V11.7143Z" fill="white" fill-opacity="0.48"/>
<path d="M11.8182 10.7857H12.9091V11.7143H11.8182V10.7857Z" fill="white" fill-opacity="0.48"/>
<path d="M10.7273 9.85714H11.8182V10.7857H10.7273V9.85714Z" fill="white" fill-opacity="0.48"/>
<path d="M9.63636 8.92857H10.7273V9.85714H9.63636V8.92857Z" fill="white" fill-opacity="0.48"/>
<path d="M9.63636 8H10.7273V8.92857H9.63636V8Z" fill="white" fill-opacity="0.48"/>
<path d="M8.54545 7.07143H9.63636V8H8.54545V7.07143Z" fill="white" fill-opacity="0.48"/>
<path d="M7.45455 6.14286H8.54545V7.07143H7.45455V6.14286Z" fill="white" fill-opacity="0.48"/>
<path d="M7.45455 5.21429H8.54545V6.14286H7.45455V5.21429Z" fill="white" fill-opacity="0.48"/>
<path d="M6.36364 4.28571H7.45455V5.21429H6.36364V4.28571Z" fill="white" fill-opacity="0.48"/>
<path d="M5.27273 3.35714H6.36364V4.28571H5.27273V3.35714Z" fill="white" fill-opacity="0.48"/>
<path d="M5.27273 2.42857H6.36364V3.35714H5.27273V2.42857Z" fill="white" fill-opacity="0.48"/>
<path d="M5.27273 8.92857H6.36364V9.85714H5.27273V8.92857Z" fill="white" fill-opacity="0.48"/>
<path d="M5.27273 9.85714H6.36364V10.7857H5.27273V9.85714Z" fill="white" fill-opacity="0.48"/>
<path d="M9.63636 6.14286H10.7273V7.07143H9.63636V6.14286Z" fill="white" fill-opacity="0.48"/>
<path d="M9.63636 5.21429H10.7273V6.14286H9.63636V5.21429Z" fill="white" fill-opacity="0.48"/>
<path d="M4.18182 10.7857H5.27273V11.7143H4.18182V10.7857Z" fill="white" fill-opacity="0.48"/>
<path d="M3.09091 11.7143H4.18182V12.6429H3.09091V11.7143Z" fill="white" fill-opacity="0.48"/>
<path d="M3.09091 12.6429H4.18182V13.5714H3.09091V12.6429Z" fill="white" fill-opacity="0.48"/>
<path d="M2 13.5714H3.09091V14.5H2V13.5714Z" fill="white" fill-opacity="0.48"/>
<path d="M10.7273 4.28571H11.8182V5.21429H10.7273V4.28571Z" fill="white" fill-opacity="0.48"/>
<path d="M11.8182 3.35714H12.9091V4.28571H11.8182V3.35714Z" fill="white" fill-opacity="0.48"/>
<path d="M11.8182 2.42857H12.9091V3.35714H11.8182V2.42857Z" fill="white" fill-opacity="0.48"/>
<path d="M12.9091 1.5H14V2.42857H12.9091V1.5Z" fill="white" fill-opacity="0.48"/>
</svg>
