<svg width="16" height="16" viewBox="0 0 16 16" fill="#f03d3d" xmlns="http://www.w3.org/2000/svg">
<path d="M8 2H9V3H8V2Z" fill=""/>
<path d="M7 2H8V3H7V2Z" fill=""/>
<path d="M6 3H7V4H6V3Z" fill=""/>
<path d="M5 4H6V5H5V4Z" fill=""/>
<path d="M4 5H5V6H4V5Z" fill=""/>
<path d="M3 6H4V7H3V6Z" fill=""/>
<path d="M2 7H3V8H2V7Z" fill=""/>
<path d="M2 8H3V9H2V8Z" fill=""/>
<path d="M1 9H2V10H1V9Z" fill=""/>
<path d="M1 10H2V11H1V10Z" fill=""/>
<path d="M1 11H2V12H1V11Z" fill=""/>
<path d="M2 12H3V13H2V12Z" fill=""/>
<path d="M3 12H4V13H3V12Z" fill=""/>
<path d="M4 13H5V14H4V13Z" fill=""/>
<path d="M5 13H6V14H5V13Z" fill=""/>
<path d="M6 13H7V14H6V13Z" fill=""/>
<path d="M7 13H8V14H7V13Z" fill=""/>
<path d="M8 13H9V14H8V13Z" fill=""/>
<path d="M9 13H10V14H9V13Z" fill=""/>
<path d="M10 13H11V14H10V13Z" fill=""/>
<path d="M11 13H12V14H11V13Z" fill=""/>
<path d="M12 12H13V13H12V12Z" fill=""/>
<path d="M13 12H14V13H13V12Z" fill=""/>
<path d="M14 11H15V12H14V11Z" fill=""/>
<path d="M14 10H15V11H14V10Z" fill=""/>
<path d="M14 9H15V10H14V9Z" fill=""/>
<path d="M13 8H14V9H13V8Z" fill=""/>
<path d="M13 7H14V8H13V7Z" fill=""/>
<path d="M12 6H13V7H12V6Z" fill=""/>
<path d="M11 5H12V6H11V5Z" fill=""/>
<path d="M10 4H11V5H10V4Z" fill=""/>
<path d="M9 3H10V4H9V3Z" fill=""/>
<path d="M7.25 10H8.25V11H7.25V10Z" fill=""/>
<path d="M7.25 11H8.25V11.5H7.25V11Z" fill=""/>
<path d="M8.25 11H8.75V11.5H8.25V11Z" fill=""/>
<path d="M8.25 10H8.75V11H8.25V10Z" fill=""/>
<path d="M7.25 6H8.25V7H7.25V6Z" fill=""/>
<path d="M8.25 6H8.75V7H8.25V6Z" fill=""/>
<path d="M8.25 7H8.75V8H8.25V7Z" fill=""/>
<path d="M8.25 8H8.75V9H8.25V8Z" fill=""/>
<path d="M7.25 8H8.25V9H7.25V8Z" fill=""/>
<path d="M7.25 7H8.25V8H7.25V7Z" fill=""/>
<path d="M7.25 5H8.25V6H7.25V5Z" fill=""/>
<path d="M8.25 5H8.75V6H8.25V5Z" fill=""/>
</svg>
