<svg width="16" height="16" viewBox="0 0 16 16" fill="none" xmlns="http://www.w3.org/2000/svg">
<path d="M6.5 1.5H7.5V2.5H6.5V1.5Z" fill="white" fill-opacity="0.32"/>
<path d="M7.5 1.5H8.5V2.5H7.5V1.5Z" fill="white" fill-opacity="0.32"/>
<path d="M8.5 1.5H9.5V2.5H8.5V1.5Z" fill="white" fill-opacity="0.32"/>
<path d="M5.5 2.5H6.5V3.5H5.5V2.5Z" fill="white" fill-opacity="0.32"/>
<path d="M4.5 2.5H5.5V3.5H4.5V2.5Z" fill="white" fill-opacity="0.32"/>
<path d="M9.5 2.5H10.5V3.5H9.5V2.5Z" fill="white" fill-opacity="0.32"/>
<path d="M10.5 2.5H11.5V3.5H10.5V2.5Z" fill="white" fill-opacity="0.32"/>
<path d="M3.5 3.5H4.5V4.5H3.5V3.5Z" fill="white" fill-opacity="0.32"/>
<path d="M11.5 3.5H12.5V4.5H11.5V3.5Z" fill="white" fill-opacity="0.32"/>
<path d="M12.5 4.5H13.5V5.5H12.5V4.5Z" fill="white" fill-opacity="0.32"/>
<path d="M12.5 5.5H13.5V6.5H12.5V5.5Z" fill="white" fill-opacity="0.32"/>
<path d="M2.5 4.5H3.5V5.5H2.5V4.5Z" fill="white" fill-opacity="0.32"/>
<path d="M2.5 5.5H3.5V6.5H2.5V5.5Z" fill="white" fill-opacity="0.32"/>
<path d="M1.5 6.5H2.5V7.5H1.5V6.5Z" fill="white" fill-opacity="0.32"/>
<path d="M1.5 7.5H2.5V8.5H1.5V7.5Z" fill="white" fill-opacity="0.32"/>
<path d="M1.5 8.5H2.5V9.5H1.5V8.5Z" fill="white" fill-opacity="0.32"/>
<path d="M13.5 6.5H14.5V7.5H13.5V6.5Z" fill="white" fill-opacity="0.32"/>
<path d="M13.5 7.5H14.5V8.5H13.5V7.5Z" fill="white" fill-opacity="0.32"/>
<path d="M13.5 8.5H14.5V9.5H13.5V8.5Z" fill="white" fill-opacity="0.32"/>
<path d="M2.5 9.5H3.5V10.5H2.5V9.5Z" fill="white" fill-opacity="0.32"/>
<path d="M2.5 10.5H3.5V11.5H2.5V10.5Z" fill="white" fill-opacity="0.32"/>
<path d="M3.5 11.5H4.5V12.5H3.5V11.5Z" fill="white" fill-opacity="0.32"/>
<path d="M4.5 12.5H5.5V13.5H4.5V12.5Z" fill="white" fill-opacity="0.32"/>
<path d="M5.5 12.5H6.5V13.5H5.5V12.5Z" fill="white" fill-opacity="0.32"/>
<path d="M6.5 13.5H7.5V14.5H6.5V13.5Z" fill="white" fill-opacity="0.32"/>
<path d="M7.5 13.5H8.5V14.5H7.5V13.5Z" fill="white" fill-opacity="0.32"/>
<path d="M8.5 13.5H9.5V14.5H8.5V13.5Z" fill="white" fill-opacity="0.32"/>
<path d="M9.5 12.5H10.5V13.5H9.5V12.5Z" fill="white" fill-opacity="0.32"/>
<path d="M10.5 12.5H11.5V13.5H10.5V12.5Z" fill="white" fill-opacity="0.32"/>
<path d="M11.5 11.5H12.5V12.5H11.5V11.5Z" fill="white" fill-opacity="0.32"/>
<path d="M12.5 9.5H13.5V10.5H12.5V9.5Z" fill="white" fill-opacity="0.32"/>
<path d="M12.5 10.5H13.5V11.5H12.5V10.5Z" fill="white" fill-opacity="0.32"/>
<path d="M7.5 3.5H8.5V4.5H7.5V3.5Z" fill="white" fill-opacity="0.32"/>
<path d="M7.5 4.5H8.5V5.5H7.5V4.5Z" fill="white" fill-opacity="0.32"/>
<path d="M7.5 5.5H8.5V6.5H7.5V5.5Z" fill="white" fill-opacity="0.32"/>
<path d="M7.5 6.5H8.5V7.5H7.5V6.5Z" fill="white" fill-opacity="0.32"/>
<path d="M7.5 7.5H8.5V8.5H7.5V7.5Z" fill="white" fill-opacity="0.32"/>
<path d="M8.5 8.5H9.5V9.5H8.5V8.5Z" fill="white" fill-opacity="0.32"/>
<path d="M9.5 9.5H10.5V10.5H9.5V9.5Z" fill="white" fill-opacity="0.32"/>
</svg>
