<svg width="16" height="16" viewBox="0 0 16 16" fill="#3EACDB" xmlns="http://www.w3.org/2000/svg">
<path d="M8 1.5H9V2.5H8V1.5Z"/>
<path d="M8 2.5H9V3.5H8V2.5Z"/>
<path d="M8 3.5H9V4.5H8V3.5Z"/>
<path d="M8 4.5H9V5.5H8V4.5Z"/>
<path d="M8 5.5H9V6.5H8V5.5Z"/>
<path d="M8 6.5H9V7.5H8V6.5Z"/>
<path d="M9 6.5H10V7.5H9V6.5Z"/>
<path d="M10 6.5H11V7.5H10V6.5Z"/>
<path d="M11 6.5H12V7.5H11V6.5Z"/>
<path d="M12 6.5H13V7.5H12V6.5Z"/>
<path d="M13 6.5H14V7.5H13V6.5Z"/>
<path d="M13 6.5H14V7.5H13V6.5Z"/>
<path d="M2 8.5H3V9.5H2V8.5Z"/>
<path d="M3 8.5H4V9.5H3V8.5Z"/>
<path d="M4 8.5H5V9.5H4V8.5Z"/>
<path d="M5 8.5H6V9.5H5V8.5Z"/>
<path d="M6 8.5H7V9.5H6V8.5Z"/>
<path d="M7 8.5H8V9.5H7V8.5Z"/>
<path d="M7 9.5H8V10.5H7V9.5Z"/>
<path d="M7 10.5H8V11.5H7V10.5Z"/>
<path d="M7 11.5H8V12.5H7V11.5Z"/>
<path d="M7 12.5H8V13.5H7V12.5Z"/>
<path d="M7 13.5H8V14.5H7V13.5Z"/>
<path d="M7 2.5H8V3.5H7V2.5Z"/>
<path d="M6 3.5H7V4.5H6V3.5Z"/>
<path d="M5 4.5H6V5.5H5V4.5Z"/>
<path d="M4 5.5H5V6.5H4V5.5Z"/>
<path d="M3 6.5H4V7.5H3V6.5Z"/>
<path d="M2 7.5H3V8.5H2V7.5Z"/>
<path d="M13 7.5H14V8.5H13V7.5Z"/>
<path d="M12 8.5H13V9.5H12V8.5Z"/>
<path d="M11 9.5H12V10.5H11V9.5Z"/>
<path d="M10 10.5H11V11.5H10V10.5Z"/>
<path d="M9 11.5H10V12.5H9V11.5Z"/>
<path d="M8 12.5H9V13.5H8V12.5Z"/>
</svg>
