<svg width="36" height="40" viewBox="0 0 36 40" fill="none" xmlns="http://www.w3.org/2000/svg">
<path d="M24.9369 2.80565V6.49571M24.9369 6.49571V9.74259M24.9369 6.49571C23.3049 6.27412 21.1709 6.27412 18 6.27412C14.8291 6.27412 12.6951 6.27412 11.0631 6.49571M24.9369 6.49571C25.8003 6.61292 26.5231 6.79215 27.1847 7.06618C29.7343 8.12227 31.76 10.1479 32.816 12.6975C33.6081 14.6098 33.6081 17.0339 33.6081 21.8822C33.6081 26.7305 33.6081 29.1547 32.816 31.0669C31.76 33.6165 29.7343 35.6422 27.1847 36.6983C25.2725 37.4903 22.8483 37.4903 18 37.4903C13.1517 37.4903 10.7275 37.4903 8.81532 36.6983C6.2657 35.6422 4.24004 33.6165 3.18396 31.0669C2.39189 29.1547 2.39189 26.7305 2.39189 21.8822C2.39189 17.0339 2.39189 14.6098 3.18396 12.6975C4.24004 10.1479 6.2657 8.12227 8.81532 7.06618C9.47689 6.79215 10.1997 6.61292 11.0631 6.49571M11.0631 2.80565V6.49571M11.0631 6.49571V9.74259M12.3637 23.4811L16.1339 27.2472C17.9827 24.0144 20.5657 21.2843 23.6363 19.1876" stroke="white" stroke-opacity="0.32" stroke-width="4.45946" stroke-linecap="round" stroke-linejoin="round"/>
</svg>
