<svg width="48" height="48" viewBox="0 0 48 48" fill="none" xmlns="http://www.w3.org/2000/svg">
<path d="M17.2632 24.3835L21.7696 28.885C23.937 25.0952 26.9365 21.8468 30.5419 19.3848L30.7369 19.2516M44.7719 24.0684C44.7719 21.1704 42.9886 18.6575 40.3338 17.2998C41.266 14.4829 40.7391 11.4228 38.6923 9.37604C36.6455 7.32924 33.5855 6.80234 30.7686 7.73455C29.4311 5.07979 26.8979 3.29645 24 3.29645C21.1021 3.29645 18.5892 5.07979 17.2517 7.73455C14.4145 6.80234 11.3545 7.32924 9.30766 9.37604C7.26087 11.4228 6.75423 14.4829 7.68644 17.2998C5.03168 18.6575 3.22807 21.1704 3.22807 24.0684C3.22807 26.9663 5.03168 29.4792 7.68644 30.837C6.75423 33.6539 7.26087 36.7139 9.30766 38.7607C11.3545 40.8075 14.4145 41.3141 17.2314 40.4022C18.5892 43.057 21.1021 44.8403 24 44.8403C26.8979 44.8403 29.4311 43.057 30.7686 40.4022C33.5855 41.3141 36.6455 40.8075 38.6923 38.7607C40.7391 36.7139 41.266 33.6539 40.3338 30.837C42.9886 29.4792 44.7719 26.9663 44.7719 24.0684Z" stroke="#97A0F1" stroke-width="5.05263" stroke-linecap="round" stroke-linejoin="round"/>
</svg>
