<svg width="36" height="29" viewBox="0 0 36 29" fill="none" xmlns="http://www.w3.org/2000/svg">
<path d="M16.4314 5.10179H20.6556C20.9536 5.10179 21.2259 4.9329 21.3583 4.66592L22.4222 2.5205C22.5837 2.19468 22.9463 2.02357 23.2959 2.12382C24.3239 2.41863 26.4814 3.12989 28.2027 4.31747C34.2638 8.86214 33.6985 19.0464 33.6527 21.1973C33.6499 21.3286 33.6164 21.4581 33.5516 21.5723C30.4409 27.0626 25.0448 27.0626 25.0448 27.0626L23.2153 23.2568M19.5686 5.10179H15.3521C15.0547 5.10179 14.7829 4.93362 14.6502 4.66751L13.5785 2.51857C13.4165 2.19372 13.0545 2.02338 12.7055 2.12342C11.6781 2.41799 9.51935 3.12935 7.79728 4.31747C1.73616 8.86214 2.30146 19.0464 2.3473 21.1973C2.3501 21.3286 2.38363 21.4581 2.44837 21.5723C5.55912 27.0626 10.9552 27.0626 10.9552 27.0626L12.7905 23.2561M10.1589 22.3567C11.0995 22.7093 11.9697 23.0091 12.7905 23.2561M25.8492 22.3567C24.9077 22.7097 24.0368 23.0097 23.2153 23.2568M12.7905 23.2561C16.6246 24.4096 19.3816 24.4098 23.2153 23.2568M14.866 14.5136C14.866 15.3799 14.1635 16.0822 13.2969 16.0822C12.4304 16.0822 11.7279 15.3799 11.7279 14.5136C11.7279 13.6472 12.4304 12.9449 13.2969 12.9449C14.1635 12.9449 14.866 13.6472 14.866 14.5136ZM24.2801 14.5136C24.2801 15.3799 23.5777 16.0822 22.7111 16.0822C21.8446 16.0822 21.1421 15.3799 21.1421 14.5136C21.1421 13.6472 21.8446 12.9449 22.7111 12.9449C23.5777 12.9449 24.2801 13.6472 24.2801 14.5136Z" stroke="white" stroke-opacity="0.32" stroke-width="3.52941" stroke-linecap="round" stroke-linejoin="round"/>
</svg>
