<svg width="30" height="36" viewBox="0 0 30 36" fill="none" xmlns="http://www.w3.org/2000/svg">
<path fill-rule="evenodd" clip-rule="evenodd" d="M16.5993 4.18407C16.5993 5.4715 16.5993 6.53404 16.67 7.39961C16.7434 8.29858 16.9011 9.12498 17.2967 9.90119C17.91 11.1049 18.8886 12.0836 20.0923 12.697C20.8686 13.0925 21.695 13.2501 22.594 13.3235C23.4596 13.3943 24.522 13.3942 25.8095 13.3942H29.392C29.3943 13.6626 29.3943 13.9475 29.3941 14.2531V24.0184C29.3941 25.7516 29.3941 27.1499 29.3017 28.2819C29.2063 29.4476 29.0051 30.4714 28.5225 31.4187C27.7559 32.9233 26.5326 34.1467 25.0279 34.9134C24.0806 35.3961 23.0567 35.5973 21.8909 35.6926C20.7589 35.785 19.3609 35.785 17.6276 35.785H12.3726C10.6393 35.785 9.24113 35.785 8.10903 35.6926C6.94335 35.5973 5.91946 35.3961 4.97219 34.9134C3.46751 34.1467 2.24417 32.9233 1.47749 31.4187C0.994825 30.4714 0.793612 29.4476 0.698371 28.2819C0.605865 27.1497 0.60588 25.7517 0.605896 24.0184V12.3661C0.60588 10.6328 0.605865 9.23469 0.698371 8.10257C0.793612 6.93688 0.994825 5.913 1.47749 4.96572C2.24417 3.46104 3.46751 2.2377 4.97219 1.47103C5.91946 0.988359 6.94335 0.787146 8.10903 0.691905C9.24118 0.599405 10.6392 0.599418 12.3726 0.599434L15.7405 0.599399C16.0461 0.599311 16.331 0.599227 16.5993 0.60151V4.18407ZM19.798 1.05125V4.11802C19.798 5.48799 19.7993 6.41927 19.8582 7.13912C19.9154 7.8403 20.0192 8.19888 20.1467 8.44902C20.4533 9.05088 20.9427 9.54023 21.5445 9.84689C21.7947 9.97434 22.1532 10.0782 22.8544 10.1355C23.5742 10.1943 24.5055 10.1955 25.8755 10.1955H28.9423C28.7552 9.66252 28.5117 9.1501 28.2157 8.6671C27.7196 7.85748 27.0394 7.17762 26.0566 6.19543L23.7982 3.93698C22.8158 2.95423 22.1361 2.27396 21.3264 1.77783C20.8435 1.48185 20.3311 1.23845 19.798 1.05125Z" fill="#FAF1B1"/>
</svg>
