<svg width="35" height="39" viewBox="0 0 35 39" fill="none" xmlns="http://www.w3.org/2000/svg">
<path d="M15.25 24.898C14.0262 26.2095 13.3547 27.9419 13.375 29.7355V36.148M22.75 24.898C23.9738 26.2095 24.6453 27.9419 24.625 29.7355V36.148M13.375 32.4918C11.6978 33.1598 9.87872 33.392 8.0875 33.1668C5.2375 32.1918 5.9875 29.6043 4.525 28.5355C3.82221 28.0331 2.98819 27.7464 2.125 27.7105M32.125 15.0543C32.125 20.6793 28.4688 24.898 19 24.898C9.53125 24.898 5.875 20.6793 5.875 15.0543C5.82869 13.1027 6.26674 11.1701 7.15 9.42929C6.5125 6.67304 6.75625 3.27929 8.125 2.60429C9.49375 1.92929 12.3813 3.16679 14.7625 4.76054C16.1612 4.51094 17.5792 4.38545 19 4.38554C20.4197 4.37307 21.8377 4.48601 23.2375 4.72304C25.6188 3.12929 28.6375 1.94804 29.875 2.56679C31.1125 3.18554 31.4875 6.63554 30.85 9.39179C31.7393 11.1439 32.1776 13.0901 32.125 15.0543Z" stroke="white" stroke-opacity="0.48" stroke-width="4.21875" stroke-linecap="round" stroke-linejoin="round"/>
</svg>
