<svg width="52" height="48" viewBox="0 0 52 48" fill="none" xmlns="http://www.w3.org/2000/svg">
<path d="M26 9.21221C18.7401 -1.72803 3.08332 4.79936 3.08332 17.2717C3.08332 33.388 23.7083 44.8994 26 44.8994C27.6886 44.8994 39.3314 38.6492 45.342 28.912M26 9.21221C33.2474 -1.7093 48.9167 4.81064 48.9167 17.2717C48.9167 21.5126 47.4885 25.4347 45.342 28.912M26 9.21221L19.5607 17.3704C17.998 19.3502 18.1666 22.1868 19.9528 23.9677C21.9862 25.995 25.3097 25.8818 27.2005 23.7209L31.7292 18.5452C34.66 23.6742 39.6246 27.4266 45.342 28.912" stroke="white" stroke-opacity="0.32" stroke-width="5.89286" stroke-linecap="round" stroke-linejoin="round"/>
</svg>
