<svg width="36" height="44" viewBox="0 0 36 44" fill="none" xmlns="http://www.w3.org/2000/svg">
<path d="M15.1217 22.0421C15.1217 15.289 3.44433 14.5806 2.67682 7.62064C2.5236 6.2313 3.01286 4.84938 3.98602 3.92276C5.10897 2.85352 7.68451 2.85352 12.8356 2.85352H23.1644C28.3155 2.85352 30.8911 2.85352 32.014 3.92276C32.9872 4.84938 33.4764 6.2313 33.3232 7.62064C32.5557 14.5806 20.8783 15.289 20.8783 22.0421C20.8783 28.7952 32.5557 29.5036 33.3232 36.4636C33.4764 37.8529 32.9872 39.2348 32.014 40.1615C30.891 41.2307 28.3155 41.2307 23.1644 41.2307L12.8356 41.2307C7.68451 41.2307 5.10896 41.2307 3.98602 40.1615C3.01286 39.2348 2.5236 37.8529 2.67681 36.4636C3.44433 29.5036 15.1217 28.7952 15.1217 22.0421Z" stroke="white" stroke-opacity="0.32" stroke-width="4.93421" stroke-linecap="round" stroke-linejoin="round"/>
</svg>
