<svg width="34" height="41" viewBox="0 0 34 41" fill="none" xmlns="http://www.w3.org/2000/svg">
<path d="M20.5942 2.34165V4.3948C20.5942 7.41422 20.5942 8.92392 21.1818 10.0772C21.6987 11.0916 22.5235 11.9164 23.5379 12.4333C24.6912 13.0209 26.2009 13.0209 29.2203 13.0209L31.2734 13.0209M20.5942 2.34165C19.887 2.23828 19.0415 2.23828 17.6272 2.23828H14.1246C10.0987 2.23828 8.08581 2.23828 6.54812 3.02177C5.19554 3.71095 4.09585 4.81063 3.40667 6.16322C2.62318 7.7009 2.62318 9.71385 2.62318 13.7397V26.6789C2.62318 30.7047 2.62318 32.7177 3.40667 34.2554C4.09585 35.608 5.19554 36.7076 6.54812 37.3968C8.08581 38.1803 10.0987 38.1803 14.1246 38.1803H19.8754C23.9012 38.1803 25.9142 38.1803 27.4519 37.3968C28.8045 36.7076 29.9041 35.608 30.5933 34.2554C31.3768 32.7177 31.3768 30.7047 31.3768 26.6789V15.9878C31.3768 14.5736 31.3768 13.7281 31.2734 13.0209M20.5942 2.34165C20.7662 2.36679 20.93 2.39804 21.0919 2.4369C21.8253 2.61299 22.5265 2.90343 23.1697 3.29756C23.8951 3.74211 24.5168 4.36374 25.76 5.60697L28.0081 7.85509C29.2514 9.09834 29.873 9.71996 30.3175 10.4454C30.7117 11.0886 31.0021 11.7897 31.1782 12.5232C31.217 12.6851 31.2483 12.8489 31.2734 13.0209M9.81159 22.0064H24.1884M9.81159 29.1948H18.7971" stroke="white" stroke-opacity="0.48" stroke-width="4.04348" stroke-linecap="round" stroke-linejoin="round"/>
</svg>
