<svg width="36" height="29" viewBox="0 0 36 29" fill="none" xmlns="http://www.w3.org/2000/svg">
<path d="M33.3776 7.78087L24.7373 13.2793C22.2956 14.833 21.0748 15.6099 19.7628 15.9125C18.6028 16.1801 17.3972 16.1801 16.2372 15.9125C14.9252 15.6099 13.7044 14.833 11.2627 13.2793L2.6224 7.78087M33.3776 7.78087C33.6863 9.28723 33.6863 11.3015 33.6863 14.4294C33.6863 18.8219 33.6863 21.0182 32.8314 22.696C32.0795 24.1717 30.8796 25.3716 29.4039 26.1235C27.7261 26.9784 25.5298 26.9784 21.1373 26.9784H14.8627C10.4702 26.9784 8.2739 26.9784 6.59616 26.1235C5.12037 25.3716 3.92053 24.1717 3.16858 22.696C2.31373 21.0182 2.31373 18.8219 2.31373 14.4294C2.31373 11.3015 2.31373 9.28723 2.6224 7.78087M33.3776 7.78087C33.2528 7.17183 33.0775 6.64581 32.8314 6.16278C32.0795 4.68699 30.8796 3.48715 29.4039 2.7352C27.7261 1.88035 25.5298 1.88035 21.1373 1.88035H14.8627C10.4702 1.88035 8.2739 1.88035 6.59616 2.7352C5.12037 3.48715 3.92053 4.68699 3.16858 6.16278C2.92246 6.64581 2.7472 7.17183 2.6224 7.78087" stroke="white" stroke-opacity="0.32" stroke-width="3.52941" stroke-linecap="round" stroke-linejoin="round"/>
</svg>
