<svg width="52" height="52" viewBox="0 0 52 52" fill="none" xmlns="http://www.w3.org/2000/svg">
<path fill-rule="evenodd" clip-rule="evenodd" d="M0.625244 25.7747C0.625244 11.7604 11.986 0.399658 26.0002 0.399658C40.0145 0.399658 51.3752 11.7604 51.3752 25.7747C51.3752 39.7889 40.0145 51.1497 26.0002 51.1497C11.986 51.1497 0.625244 39.7889 0.625244 25.7747ZM36.1598 22.4545C37.3 21.6758 37.5932 20.1203 36.8146 18.9801C36.036 17.8399 34.4804 17.5467 33.3402 18.3253L33.087 18.4982C28.9847 21.2995 25.4487 24.8354 22.6524 28.9182L19.0168 25.2866C18.04 24.3108 16.4571 24.3116 15.4813 25.2885C14.5055 26.2653 14.5063 27.8482 15.4832 28.824L21.3362 34.6707C21.8871 35.2211 22.6632 35.4833 23.435 35.3799C24.2069 35.2764 24.8865 34.8192 25.2732 34.1431C27.9004 29.5492 31.5362 25.6117 35.9066 22.6274L36.1598 22.4545Z" fill="#FBF1B8"/>
</svg>
