<svg width="24" height="36" viewBox="0 0 24 36" fill="none" xmlns="http://www.w3.org/2000/svg">
<path d="M3.10007 12.0912C3.10036 10.5484 3.50172 9.03209 4.26477 7.69115C5.02782 6.35021 6.12636 5.23066 7.45261 4.44234C8.77885 3.65402 10.2872 3.22401 11.8298 3.1945C13.3724 3.16499 14.8961 3.53698 16.2515 4.27399C17.607 5.011 18.7475 6.0877 19.5613 7.39847C20.3751 8.70925 20.8342 10.2091 20.8935 11.7508C20.9528 13.2925 20.6103 14.8231 19.8996 16.1925C19.1889 17.5619 18.1345 18.7231 16.8396 19.562C14.4688 21.0995 12.0001 23.2829 12.0001 26.1079M12.0001 32.3579H12.0209" stroke="white" stroke-opacity="0.32" stroke-width="5.35714" stroke-linecap="round" stroke-linejoin="round"/>
</svg>
