<svg width="37" height="33" viewBox="0 0 37 33" fill="none" xmlns="http://www.w3.org/2000/svg">
<path d="M23.4206 21.6035H30.4998C32.6589 21.6035 35.9905 24.2749 33.5879 26.3487C26.7083 32.6868 15.625 32.6868 8.50001 26.2162M14.8333 24.7702H22.4941C23.7028 24.7702 24.489 23.4982 23.9484 22.417C23.214 20.9481 21.7126 20.0202 20.0702 20.0202H18.2934C18.1005 20.0202 17.9102 19.9753 17.7376 19.889C14.8783 18.4593 11.668 17.888 8.49406 18.2412M8.49406 18.2412C8.39301 16.5834 7.01654 15.2702 5.33334 15.2702C3.58444 15.2702 2.16667 16.6879 2.16667 18.4368V26.3535C2.16667 28.1024 3.58444 29.5202 5.33334 29.5202C7.08224 29.5202 8.50001 28.1024 8.50001 26.3535V26.2162M8.49406 18.2412C8.498 18.3059 8.50001 18.3711 8.50001 18.4368V26.2162M29.875 5.18014C31.3107 6.18156 32.25 7.84534 32.25 9.72852C32.25 12.5203 30.1856 14.8299 27.5 15.2141M25.9167 8.14518C25.9167 11.2058 23.4356 13.6868 20.375 13.6868C17.3144 13.6868 14.8333 11.2058 14.8333 8.14518C14.8333 5.0846 17.3144 2.60352 20.375 2.60352C23.4356 2.60352 25.9167 5.0846 25.9167 8.14518Z" stroke="white" stroke-opacity="0.32" stroke-width="3.5625" stroke-linecap="round" stroke-linejoin="round"/>
</svg>
