<svg width="32" height="26" viewBox="0 0 32 26" fill="none" xmlns="http://www.w3.org/2000/svg">
<path d="M5.05359 10.8881L26.8411 2.42359C28.0535 1.95255 28.6597 1.71704 29.1063 1.82984C29.4957 1.92819 29.8229 2.18401 30.005 2.53243C30.2139 2.93205 30.1066 3.55757 29.8919 4.80862L27.4476 19.053C27.0759 21.2192 26.89 22.3023 26.3039 22.9063C25.7915 23.4343 25.0837 23.7422 24.3369 23.7621C23.4827 23.7848 22.5269 23.1985 20.6152 22.0258L16.5591 19.5376C15.3406 18.7902 14.7314 18.4165 14.4687 17.9137C14.2383 17.4728 14.1801 16.9658 14.3048 16.4865C14.4471 15.9398 14.9566 15.4449 15.9756 14.4552L22.8245 7.80313L11.2891 14.5255C10.3649 15.064 9.90278 15.3334 9.40521 15.4801C8.96417 15.6102 8.50414 15.6691 8.04345 15.6544C7.52373 15.6379 7.00555 15.4941 5.9692 15.2066L5.27079 15.0127C3.3392 14.4767 2.37339 14.2087 2.08774 13.7538C1.84058 13.3602 1.81487 12.872 2.01939 12.4559C2.25576 11.9751 3.18837 11.6128 5.05359 10.8881Z" stroke="white" stroke-opacity="0.32" stroke-width="3.52941" stroke-linecap="round" stroke-linejoin="round"/>
</svg>
