<svg width="32" height="34" viewBox="0 0 32 34" fill="none" xmlns="http://www.w3.org/2000/svg">
<path d="M27.9808 2.57172L18.0494 13.9218M2.82136 31.3253L13.4148 19.2186M18.0494 13.9218L11.1557 4.18952C10.7361 3.59715 10.5263 3.30096 10.2552 3.08696C10.0151 2.89746 9.7409 2.75568 9.44747 2.66928C9.11611 2.57172 8.75315 2.57172 8.02723 2.57172H5.33019C4.13161 2.57172 3.53232 2.57172 3.20922 2.82048C2.92789 3.03708 2.75712 3.36731 2.74298 3.72208C2.72675 4.12953 3.07315 4.61856 3.76594 5.59663L13.4148 19.2186M18.0494 13.9218L28.2343 28.3004C28.9271 29.2785 29.2735 29.7675 29.2572 30.175C29.2431 30.5297 29.0723 30.86 28.791 31.0766C28.4679 31.3253 27.8686 31.3253 26.67 31.3253H23.973C23.2471 31.3253 22.8841 31.3253 22.5527 31.2278C22.2593 31.1414 21.9852 30.9996 21.745 30.8101C21.4739 30.5961 21.2641 30.2999 20.8445 29.7075L13.4148 19.2186" stroke="white" stroke-opacity="0.48" stroke-width="4.04348" stroke-linecap="round" stroke-linejoin="round"/>
</svg>
