<svg width="41" height="38" viewBox="0 0 41 38" fill="none" xmlns="http://www.w3.org/2000/svg">
<path d="M35.0859 34.9923H35.2754C37.2604 34.9923 38.8696 33.3831 38.8696 31.3981C38.8696 28.2227 36.8107 25.5281 33.955 24.5767M27.9144 3.50944C30.1579 4.72593 31.6812 7.10149 31.6812 9.83285C31.6812 12.5642 30.1579 14.9398 27.9144 16.1563M22.6957 9.83264C22.6957 13.8027 19.4773 17.021 15.5073 17.021C11.5372 17.021 8.31885 13.8027 8.31885 9.83264C8.31885 5.86259 11.5372 2.64423 15.5073 2.64423C19.4773 2.64423 22.6957 5.86259 22.6957 9.83264ZM9.2174 24.2095H21.7971C25.7672 24.2095 28.9855 27.4278 28.9855 31.3979C28.9855 33.3829 27.3763 34.9921 25.3913 34.9921H5.62319C3.63817 34.9921 2.02899 33.3829 2.02899 31.3979C2.02899 27.4278 5.24735 24.2095 9.2174 24.2095Z" stroke="white" stroke-opacity="0.32" stroke-width="4.04348" stroke-linecap="round" stroke-linejoin="round"/>
</svg>
