<svg width="32" height="40" viewBox="0 0 32 40" fill="none" xmlns="http://www.w3.org/2000/svg">
<path d="M5.98552 14.1806L15.6798 6.58107C18.4385 4.41852 19.8178 3.33725 20.7621 3.44411C21.5795 3.5366 22.2987 4.06002 22.677 4.83763C23.1141 5.736 22.6709 7.49851 21.7845 11.0235L21.0418 13.9771C20.687 15.3883 20.5095 16.0939 20.6317 16.7065C20.7392 17.2454 21.004 17.7342 21.3882 18.1028C21.825 18.5219 22.4872 18.711 23.8115 19.0891L24.6708 19.3344C27.2176 20.0616 28.491 20.4252 29.0001 21.1654C29.4428 21.809 29.5847 22.6331 29.3853 23.4022C29.156 24.2868 28.0866 25.1084 25.948 26.7517L16.4293 34.0659C13.6877 36.1726 12.3169 37.2259 11.3772 37.1129C10.5637 37.015 9.85001 36.4903 9.47532 35.7146C9.04252 34.8187 9.47994 33.0792 10.3548 29.6001L11.0187 26.9596C11.3736 25.5483 11.551 24.8427 11.4288 24.2301C11.3213 23.6912 11.0565 23.2025 10.6723 22.8338C10.2355 22.4148 9.57335 22.2257 8.249 21.8476L7.29285 21.5745C4.7728 20.855 3.51277 20.4952 3.00403 19.76C2.56158 19.1205 2.4167 18.3011 2.61043 17.5339C2.8332 16.6518 3.88398 15.8281 5.98552 14.1806Z" stroke="#97A0F1" stroke-width="5.05263" stroke-linecap="round" stroke-linejoin="round"/>
</svg>
