<svg width="196" height="210" viewBox="0 0 196 210" fill="none" xmlns="http://www.w3.org/2000/svg">
<mask id="path-1-inside-1_45_277" fill="white">
<path fill-rule="evenodd" clip-rule="evenodd" d="M4.93082 1C4.93082 0.447715 4.4831 0 3.93082 0H1C0.447715 0 0 0.447719 0 1V178.308C0 178.86 0.447711 179.308 0.999994 179.308L2.08177 179.308C2.63405 179.308 3.08176 179.755 3.08176 180.308V195.462H0.999999C0.447714 195.462 0 195.909 0 196.462V209C0 209.552 0.447715 210 1 210H2.08176C2.63405 210 3.08176 209.552 3.08176 209L3.08176 195.462L6.16352 195.462V209C6.16352 209.552 6.61124 210 7.16352 210H195C195.552 210 196 209.552 196 209V190C196 189.448 195.552 189 195 189H194.535C193.982 189 193.535 188.552 193.535 188V169C193.535 168.448 193.982 168 194.535 168H195C195.552 168 196 167.552 196 167V43.0001C196 42.4478 195.552 42.0001 195 42.0001H194.226C193.674 42.0001 193.226 42.4478 193.226 43.0001V52.3078C193.226 52.8601 192.779 53.3078 192.226 53.3078H190.22C189.668 53.3078 189.22 52.8601 189.22 52.3078V33.3078C189.22 32.7555 189.668 32.3078 190.22 32.3078H192.226C192.779 32.3078 193.226 31.86 193.226 31.3078V22.0001C193.226 21.4478 192.779 21.0001 192.226 21.0001L190.22 21.0001C189.668 21.0001 189.22 20.5524 189.22 20.0001V1.00015C189.22 0.447864 189.668 0.000148811 190.22 0.000148811H193.226C193.226 0.000148811 193.226 0.000115498 193.226 7.44054e-05V7.44054e-05C193.226 3.33124e-05 193.226 0 193.226 0H9.93711C9.38482 0 8.93711 0.447715 8.93711 1V20C8.93711 20.5523 8.48939 21 7.93711 21H5.93082C5.37853 21 4.93082 20.5523 4.93082 20V1ZM6.16352 195.462L6.16352 180.308C6.16352 179.755 6.61124 179.308 7.16353 179.308L8.24529 179.308C8.79757 179.308 9.24528 179.755 9.24528 180.308V194.462C9.24528 195.014 8.79757 195.462 8.24528 195.462H6.16352Z"/>
</mask>
<path fill-rule="evenodd" clip-rule="evenodd" d="M4.93082 1C4.93082 0.447715 4.4831 0 3.93082 0H1C0.447715 0 0 0.447719 0 1V178.308C0 178.86 0.447711 179.308 0.999994 179.308L2.08177 179.308C2.63405 179.308 3.08176 179.755 3.08176 180.308V195.462H0.999999C0.447714 195.462 0 195.909 0 196.462V209C0 209.552 0.447715 210 1 210H2.08176C2.63405 210 3.08176 209.552 3.08176 209L3.08176 195.462L6.16352 195.462V209C6.16352 209.552 6.61124 210 7.16352 210H195C195.552 210 196 209.552 196 209V190C196 189.448 195.552 189 195 189H194.535C193.982 189 193.535 188.552 193.535 188V169C193.535 168.448 193.982 168 194.535 168H195C195.552 168 196 167.552 196 167V43.0001C196 42.4478 195.552 42.0001 195 42.0001H194.226C193.674 42.0001 193.226 42.4478 193.226 43.0001V52.3078C193.226 52.8601 192.779 53.3078 192.226 53.3078H190.22C189.668 53.3078 189.22 52.8601 189.22 52.3078V33.3078C189.22 32.7555 189.668 32.3078 190.22 32.3078H192.226C192.779 32.3078 193.226 31.86 193.226 31.3078V22.0001C193.226 21.4478 192.779 21.0001 192.226 21.0001L190.22 21.0001C189.668 21.0001 189.22 20.5524 189.22 20.0001V1.00015C189.22 0.447864 189.668 0.000148811 190.22 0.000148811H193.226C193.226 0.000148811 193.226 0.000115498 193.226 7.44054e-05V7.44054e-05C193.226 3.33124e-05 193.226 0 193.226 0H9.93711C9.38482 0 8.93711 0.447715 8.93711 1V20C8.93711 20.5523 8.48939 21 7.93711 21H5.93082C5.37853 21 4.93082 20.5523 4.93082 20V1ZM6.16352 195.462L6.16352 180.308C6.16352 179.755 6.61124 179.308 7.16353 179.308L8.24529 179.308C8.79757 179.308 9.24528 179.755 9.24528 180.308V194.462C9.24528 195.014 8.79757 195.462 8.24528 195.462H6.16352Z" fill="white" fill-opacity="0.25"/>
<path d="M8.24529 179.308L8.24529 178.308L8.24529 179.308ZM7.16353 179.308L7.16352 180.308L7.16353 179.308ZM190.22 21.0001L190.22 22.0001L190.22 21.0001ZM192.226 21.0001L192.226 20.0001L192.226 21.0001ZM3.08176 209L2.08176 209L3.08176 209ZM2.08177 179.308L2.08177 178.308L2.08177 179.308ZM0.999994 179.308L0.999989 180.308L0.999994 179.308ZM1 1H3.93082V-1H1V1ZM1 178.308V1H-1V178.308H1ZM2.08177 178.308L0.999999 178.308L0.999989 180.308L2.08176 180.308L2.08177 178.308ZM4.08176 195.462V180.308H2.08176V195.462H4.08176ZM3.08176 194.462H0.999999V196.462H3.08176V194.462ZM-1 196.462V209H1V196.462H-1ZM1 211H2.08176V209H1V211ZM4.08176 209L4.08176 195.462L2.08176 195.462L2.08176 209L4.08176 209ZM6.16353 194.462L3.08177 194.462L3.08176 196.462L6.16352 196.462L6.16353 194.462ZM7.16352 209V195.462H5.16352V209H7.16352ZM195 209H7.16352V211H195V209ZM195 190V209H197V190H195ZM194.535 190H195V188H194.535V190ZM192.535 169V188H194.535V169H192.535ZM195 167H194.535V169H195V167ZM195 43.0001V167H197V43.0001H195ZM194.226 43.0001H195V41.0001H194.226V43.0001ZM194.226 52.3078V43.0001H192.226V52.3078H194.226ZM190.22 54.3078H192.226V52.3078H190.22V54.3078ZM188.22 33.3078V52.3078H190.22V33.3078H188.22ZM192.226 31.3078H190.22V33.3078H192.226V31.3078ZM192.226 22.0001V31.3078H194.226V22.0001H192.226ZM190.22 22.0001L192.226 22.0001L192.226 20.0001L190.22 20.0001L190.22 22.0001ZM188.22 1.00015V20.0001H190.22V1.00015H188.22ZM193.226 -0.999851H190.22V1.00015H193.226V-0.999851ZM9.93711 1H193.226V-1H9.93711V1ZM9.93711 20V1H7.93711V20H9.93711ZM5.93082 22H7.93711V20H5.93082V22ZM3.93082 1V20H5.93082V1H3.93082ZM7.16352 195.462L7.16352 180.308L5.16352 180.308L5.16352 195.462L7.16352 195.462ZM7.16352 180.308L8.24528 180.308L8.24529 178.308L7.16353 178.308L7.16352 180.308ZM8.24528 180.308V194.462H10.2453V180.308H8.24528ZM8.24528 194.462H6.16352V196.462H8.24528V194.462ZM8.24528 194.462L8.24528 194.462V196.462C9.34985 196.462 10.2453 195.566 10.2453 194.462H8.24528ZM8.24528 180.308L8.24528 180.308H10.2453C10.2453 179.203 9.34986 178.308 8.24529 178.308L8.24528 180.308ZM7.16352 180.308L7.16352 180.308L7.16353 178.308C6.05896 178.308 5.16352 179.203 5.16352 180.308L7.16352 180.308ZM5.93082 20L5.93082 20H3.93082C3.93082 21.1046 4.82625 22 5.93082 22V20ZM7.93711 20L7.93711 20V22C9.04168 22 9.93711 21.1046 9.93711 20H7.93711ZM9.93711 -1C8.83254 -1 7.93711 -0.10457 7.93711 1H9.93711L9.93711 1V-1ZM194.226 7.44054e-05C194.226 -0.594298 193.736 -1 193.226 -1V1C192.717 1 192.226 0.594365 192.226 7.44054e-05H194.226ZM190.22 20.0001L190.22 20.0001H188.22C188.22 21.1047 189.116 22.0002 190.22 22.0001L190.22 20.0001ZM194.226 22.0001C194.226 20.8955 193.331 20.0001 192.226 20.0001L192.226 22.0001L192.226 22.0001H194.226ZM192.226 33.3078C193.331 33.3078 194.226 32.4123 194.226 31.3078H192.226L192.226 31.3078V33.3078ZM190.22 33.3078L190.22 33.3078V31.3078C189.116 31.3078 188.22 32.2032 188.22 33.3078H190.22ZM190.22 52.3078L190.22 52.3078H188.22C188.22 53.4123 189.116 54.3078 190.22 54.3078V52.3078ZM192.226 52.3078L192.226 52.3078V54.3078C193.331 54.3078 194.226 53.4123 194.226 52.3078H192.226ZM194.226 41.0001C193.122 41.0001 192.226 41.8955 192.226 43.0001H194.226L194.226 43.0001V41.0001ZM197 43.0001C197 41.8955 196.105 41.0001 195 41.0001V43.0001L195 43.0001H197ZM195 169C196.105 169 197 168.105 197 167H195L195 167V169ZM194.535 169L194.535 169V167C193.43 167 192.535 167.895 192.535 169H194.535ZM195 211C196.105 211 197 210.105 197 209H195L195 209V211ZM5.16352 209C5.16352 210.105 6.05895 211 7.16352 211V209L7.16352 209H5.16352ZM2.08176 211C3.18633 211 4.08176 210.105 4.08176 209L2.08176 209L2.08176 209V211ZM-1 209C-1 210.105 -0.104571 211 1 211V209L1 209H-1ZM2.08176 180.308L2.08176 180.308H4.08176C4.08176 179.203 3.18634 178.308 2.08177 178.308L2.08176 180.308ZM-1 178.308C-1 179.412 -0.104578 180.308 0.999989 180.308L0.999999 178.308L1 178.308H-1ZM194.535 188L194.535 188H192.535C192.535 189.105 193.43 190 194.535 190V188ZM193.226 1.00015C193.779 1.00015 194.226 0.552401 194.226 7.44054e-05H192.226C192.226 -0.55217 192.674 -0.999851 193.226 -0.999851V1.00015ZM3.93082 1L3.93082 1H5.93082C5.93082 -0.104569 5.03539 -1 3.93082 -1V1ZM0.999999 194.462C-0.104572 194.462 -1 195.357 -1 196.462H1L0.999999 196.462V194.462ZM197 190C197 188.895 196.105 188 195 188V190L195 190H197ZM190.22 1.00015L190.22 1.00015V-0.999851C189.116 -0.999851 188.22 -0.104421 188.22 1.00015H190.22ZM1 -1C-0.104575 -1 -1 -0.10456 -1 1H1L1 1V-1Z" fill="white" mask="url(#path-1-inside-1_45_277)"/>
</svg>
