<svg width="196" height="176" viewBox="0 0 196 176" fill="none" xmlns="http://www.w3.org/2000/svg">
<mask id="path-1-inside-1_56_292" fill="white">
<path fill-rule="evenodd" clip-rule="evenodd" d="M4.93082 1C4.93082 0.447715 4.4831 0 3.93082 0H1C0.447715 0 0 0.447715 0 1V149.277C0 149.829 0.447714 150.277 0.999999 150.277H2.08176C2.63405 150.277 3.08176 150.725 3.08176 151.277V163.815H0.999999C0.447714 163.815 0 164.263 0 164.815V175C0 175.552 0.447715 176 1 176H2.08176C2.63405 176 3.08176 175.552 3.08176 175L3.08176 163.815L6.16352 163.815V175C6.16352 175.552 6.61124 176 7.16352 176H195C195.552 176 196 175.552 196 175V159.4C196 158.848 195.552 158.4 195 158.4H194.535C193.982 158.4 193.535 157.952 193.535 157.4V141.8C193.535 141.248 193.982 140.8 194.535 140.8H195C195.552 140.8 196 140.352 196 139.8V36.2001C196 35.6478 195.552 35.2001 195 35.2001H194.226C193.674 35.2001 193.226 35.6478 193.226 36.2001V43.677C193.226 44.2293 192.779 44.677 192.226 44.677H190.22C189.668 44.677 189.22 44.2293 189.22 43.677V28.077C189.22 27.5247 189.668 27.077 190.22 27.077H192.226C192.779 27.077 193.226 26.6293 193.226 26.077V18.6001C193.226 18.0478 192.779 17.6001 192.226 17.6001L190.22 17.6001C189.668 17.6001 189.22 17.1524 189.22 16.6001V1.00012C189.22 0.44784 189.668 0.000124718 190.22 0.000124718H193.226C193.226 0.000124718 193.226 9.67986e-05 193.226 6.23588e-05C193.226 2.7919e-05 193.226 0 193.226 0H9.93711C9.38482 0 8.93711 0.447716 8.93711 1V16.6C8.93711 17.1523 8.48939 17.6 7.93711 17.6H5.93082C5.37853 17.6 4.93082 17.1523 4.93082 16.6V1ZM6.16352 163.815L6.16352 151.277C6.16352 150.725 6.61124 150.277 7.16352 150.277H8.24528C8.79757 150.277 9.24528 150.725 9.24528 151.277V162.815C9.24528 163.368 8.79757 163.815 8.24529 163.815L6.16352 163.815Z"/>
</mask>
<path fill-rule="evenodd" clip-rule="evenodd" d="M4.93082 1C4.93082 0.447715 4.4831 0 3.93082 0H1C0.447715 0 0 0.447715 0 1V149.277C0 149.829 0.447714 150.277 0.999999 150.277H2.08176C2.63405 150.277 3.08176 150.725 3.08176 151.277V163.815H0.999999C0.447714 163.815 0 164.263 0 164.815V175C0 175.552 0.447715 176 1 176H2.08176C2.63405 176 3.08176 175.552 3.08176 175L3.08176 163.815L6.16352 163.815V175C6.16352 175.552 6.61124 176 7.16352 176H195C195.552 176 196 175.552 196 175V159.4C196 158.848 195.552 158.4 195 158.4H194.535C193.982 158.4 193.535 157.952 193.535 157.4V141.8C193.535 141.248 193.982 140.8 194.535 140.8H195C195.552 140.8 196 140.352 196 139.8V36.2001C196 35.6478 195.552 35.2001 195 35.2001H194.226C193.674 35.2001 193.226 35.6478 193.226 36.2001V43.677C193.226 44.2293 192.779 44.677 192.226 44.677H190.22C189.668 44.677 189.22 44.2293 189.22 43.677V28.077C189.22 27.5247 189.668 27.077 190.22 27.077H192.226C192.779 27.077 193.226 26.6293 193.226 26.077V18.6001C193.226 18.0478 192.779 17.6001 192.226 17.6001L190.22 17.6001C189.668 17.6001 189.22 17.1524 189.22 16.6001V1.00012C189.22 0.44784 189.668 0.000124718 190.22 0.000124718H193.226C193.226 0.000124718 193.226 9.67986e-05 193.226 6.23588e-05C193.226 2.7919e-05 193.226 0 193.226 0H9.93711C9.38482 0 8.93711 0.447716 8.93711 1V16.6C8.93711 17.1523 8.48939 17.6 7.93711 17.6H5.93082C5.37853 17.6 4.93082 17.1523 4.93082 16.6V1ZM6.16352 163.815L6.16352 151.277C6.16352 150.725 6.61124 150.277 7.16352 150.277H8.24528C8.79757 150.277 9.24528 150.725 9.24528 151.277V162.815C9.24528 163.368 8.79757 163.815 8.24529 163.815L6.16352 163.815Z" fill="white" fill-opacity="0.25"/>
<path d="M8.24529 163.815L8.24529 164.815L8.24529 163.815ZM6.16352 151.277H5.16352H6.16352ZM190.22 17.6001L190.22 18.6001L190.22 17.6001ZM192.226 17.6001L192.226 16.6001L192.226 17.6001ZM1 1H3.93082V-1H1V1ZM1 149.277V1H-1V149.277H1ZM2.08176 149.277H0.999999V151.277H2.08176V149.277ZM4.08176 163.815V151.277H2.08176V163.815H4.08176ZM3.08176 162.815H0.999999V164.815H3.08176V162.815ZM-1 164.815V175H1V164.815H-1ZM1 177H2.08176V175H1V177ZM4.08176 175L4.08176 163.815H2.08176L2.08176 175H4.08176ZM6.16353 162.815L3.08177 162.815L3.08176 164.815L6.16352 164.815L6.16353 162.815ZM7.16352 175V163.815H5.16352V175H7.16352ZM195 175H7.16352V177H195V175ZM195 159.4V175H197V159.4H195ZM194.535 159.4H195V157.4H194.535V159.4ZM192.535 141.8V157.4H194.535V141.8H192.535ZM195 139.8H194.535V141.8H195V139.8ZM195 36.2001V139.8H197V36.2001H195ZM194.226 36.2001H195V34.2001H194.226V36.2001ZM194.226 43.677V36.2001H192.226V43.677H194.226ZM190.22 45.677H192.226V43.677H190.22V45.677ZM188.22 28.077V43.677H190.22V28.077H188.22ZM192.226 26.077H190.22V28.077H192.226V26.077ZM192.226 18.6001V26.077H194.226V18.6001H192.226ZM190.22 18.6001L192.226 18.6001L192.226 16.6001L190.22 16.6001L190.22 18.6001ZM188.22 1.00012V16.6001H190.22V1.00012H188.22ZM193.226 -0.999875H190.22V1.00012H193.226V-0.999875ZM9.93711 1H193.226V-1H9.93711V1ZM9.93711 16.6V1H7.93711V16.6H9.93711ZM5.93082 18.6H7.93711V16.6H5.93082V18.6ZM3.93082 1V16.6H5.93082V1H3.93082ZM7.16352 163.815L7.16352 151.277H5.16352L5.16352 163.815H7.16352ZM7.16352 151.277H8.24528V149.277H7.16352V151.277ZM8.24528 151.277V162.815H10.2453V151.277H8.24528ZM8.24528 162.815L6.16352 162.815L6.16353 164.815L8.24529 164.815L8.24528 162.815ZM8.24528 162.815L8.24529 164.815C9.34986 164.815 10.2453 163.92 10.2453 162.815H8.24528ZM8.24528 151.277H8.24528H10.2453C10.2453 150.172 9.34985 149.277 8.24528 149.277V151.277ZM7.16352 151.277V149.277C6.05895 149.277 5.16352 150.172 5.16352 151.277H7.16352ZM5.93082 16.6V16.6H3.93082C3.93082 17.7046 4.82625 18.6 5.93082 18.6V16.6ZM7.93711 16.6H7.93711V18.6C9.04168 18.6 9.93711 17.7046 9.93711 16.6H7.93711ZM9.93711 -1C8.83254 -1 7.93711 -0.104567 7.93711 1H9.93711V1V-1ZM194.226 6.23588e-05C194.226 -0.622167 193.706 -1 193.226 -1V1C192.747 1 192.226 0.622222 192.226 6.23588e-05H194.226ZM190.22 16.6001V16.6001H188.22C188.22 17.7047 189.116 18.6001 190.22 18.6001L190.22 16.6001ZM194.226 18.6001C194.226 17.4955 193.331 16.6001 192.226 16.6001L192.226 18.6001H194.226ZM192.226 28.077C193.331 28.077 194.226 27.1816 194.226 26.077H192.226V28.077ZM190.22 28.077V26.077C189.116 26.077 188.22 26.9724 188.22 28.077H190.22ZM190.22 43.677H188.22C188.22 44.7816 189.116 45.677 190.22 45.677V43.677ZM192.226 43.677V45.677C193.331 45.677 194.226 44.7816 194.226 43.677H192.226ZM194.226 34.2001C193.122 34.2001 192.226 35.0955 192.226 36.2001H194.226V34.2001ZM197 36.2001C197 35.0955 196.105 34.2001 195 34.2001V36.2001H197ZM195 141.8C196.105 141.8 197 140.905 197 139.8H195V141.8ZM194.535 141.8V139.8C193.43 139.8 192.535 140.695 192.535 141.8H194.535ZM195 177C196.105 177 197 176.105 197 175H195V177ZM5.16352 175C5.16352 176.105 6.05895 177 7.16352 177V175H7.16352H5.16352ZM2.08176 177C3.18633 177 4.08176 176.105 4.08176 175H2.08176H2.08176V177ZM-1 175C-1 176.105 -0.104568 177 1 177V175H1H-1ZM2.08176 151.277H2.08176H4.08176C4.08176 150.172 3.18633 149.277 2.08176 149.277V151.277ZM-1 149.277C-1 150.381 -0.104572 151.277 0.999999 151.277V149.277H1H-1ZM194.535 157.4H192.535C192.535 158.505 193.43 159.4 194.535 159.4V157.4ZM193.226 1.00012C193.779 1.00012 194.226 0.552381 194.226 6.23588e-05H192.226C192.226 -0.552188 192.674 -0.999875 193.226 -0.999875V1.00012ZM3.93082 1H5.93082C5.93082 -0.104569 5.03539 -1 3.93082 -1V1ZM0.999999 162.815C-0.104572 162.815 -1 163.711 -1 164.815H1H0.999999V162.815ZM197 159.4C197 158.295 196.105 157.4 195 157.4V159.4H197ZM190.22 1.00012V-0.999875C189.116 -0.999875 188.22 -0.104445 188.22 1.00012H190.22ZM1 -1C-0.10457 -1 -1 -0.10457 -1 1H1H1V-1Z" fill="white" mask="url(#path-1-inside-1_56_292)"/>
</svg>
