<svg width="196" height="138" viewBox="0 0 196 138" fill="none" xmlns="http://www.w3.org/2000/svg">
<mask id="path-1-inside-1_45_277" fill="white">
<path fill-rule="evenodd" clip-rule="evenodd" d="M4.93082 1C4.93082 0.447715 4.4831 0 3.93082 0H1C0.447715 0 0 0.447715 0 1V116.831C0 117.383 0.447714 117.831 0.999999 117.831H2.08176C2.63405 117.831 3.08176 118.278 3.08176 118.831V128.446H0.999999C0.447714 128.446 0 128.894 0 129.446V137C0 137.552 0.447715 138 1 138H2.08176C2.63405 138 3.08176 137.552 3.08176 137L3.08176 128.446L6.16352 128.446V137C6.16352 137.552 6.61124 138 7.16352 138H195C195.552 138 196 137.552 196 137V125.2C196 124.648 195.552 124.2 195 124.2H194.535C193.982 124.2 193.535 123.752 193.535 123.2V111.4C193.535 110.848 193.982 110.4 194.535 110.4H195C195.552 110.4 196 109.952 196 109.4V28.6C196 28.0478 195.552 27.6 195 27.6H194.226C193.674 27.6 193.226 28.0478 193.226 28.6V34.0308C193.226 34.5831 192.779 35.0308 192.226 35.0308H190.22C189.668 35.0308 189.22 34.5831 189.22 34.0308V22.2308C189.22 21.6785 189.668 21.2308 190.22 21.2308H192.226C192.779 21.2308 193.226 20.7831 193.226 20.2308V14.8001C193.226 14.2478 192.779 13.8001 192.226 13.8001L190.22 13.8001C189.668 13.8001 189.22 13.3524 189.22 12.8001V1.0001C189.22 0.447813 189.668 9.779e-05 190.22 9.779e-05H193.226C193.226 9.779e-05 193.226 7.5899e-05 193.226 4.8895e-05V4.8895e-05C193.226 2.1891e-05 193.226 0 193.226 0H9.93711C9.38482 0 8.93711 0.447716 8.93711 1V12.8C8.93711 13.3523 8.48939 13.8 7.93711 13.8H5.93082C5.37853 13.8 4.93082 13.3523 4.93082 12.8V1ZM6.16352 128.446L6.16352 118.831C6.16352 118.278 6.61124 117.831 7.16352 117.831H8.24528C8.79757 117.831 9.24528 118.278 9.24528 118.831V127.446C9.24528 127.998 8.79757 128.446 8.24529 128.446L6.16352 128.446Z"/>
</mask>
<path fill-rule="evenodd" clip-rule="evenodd" d="M4.93082 1C4.93082 0.447715 4.4831 0 3.93082 0H1C0.447715 0 0 0.447715 0 1V116.831C0 117.383 0.447714 117.831 0.999999 117.831H2.08176C2.63405 117.831 3.08176 118.278 3.08176 118.831V128.446H0.999999C0.447714 128.446 0 128.894 0 129.446V137C0 137.552 0.447715 138 1 138H2.08176C2.63405 138 3.08176 137.552 3.08176 137L3.08176 128.446L6.16352 128.446V137C6.16352 137.552 6.61124 138 7.16352 138H195C195.552 138 196 137.552 196 137V125.2C196 124.648 195.552 124.2 195 124.2H194.535C193.982 124.2 193.535 123.752 193.535 123.2V111.4C193.535 110.848 193.982 110.4 194.535 110.4H195C195.552 110.4 196 109.952 196 109.4V28.6C196 28.0478 195.552 27.6 195 27.6H194.226C193.674 27.6 193.226 28.0478 193.226 28.6V34.0308C193.226 34.5831 192.779 35.0308 192.226 35.0308H190.22C189.668 35.0308 189.22 34.5831 189.22 34.0308V22.2308C189.22 21.6785 189.668 21.2308 190.22 21.2308H192.226C192.779 21.2308 193.226 20.7831 193.226 20.2308V14.8001C193.226 14.2478 192.779 13.8001 192.226 13.8001L190.22 13.8001C189.668 13.8001 189.22 13.3524 189.22 12.8001V1.0001C189.22 0.447813 189.668 9.779e-05 190.22 9.779e-05H193.226C193.226 9.779e-05 193.226 7.5899e-05 193.226 4.8895e-05V4.8895e-05C193.226 2.1891e-05 193.226 0 193.226 0H9.93711C9.38482 0 8.93711 0.447716 8.93711 1V12.8C8.93711 13.3523 8.48939 13.8 7.93711 13.8H5.93082C5.37853 13.8 4.93082 13.3523 4.93082 12.8V1ZM6.16352 128.446L6.16352 118.831C6.16352 118.278 6.61124 117.831 7.16352 117.831H8.24528C8.79757 117.831 9.24528 118.278 9.24528 118.831V127.446C9.24528 127.998 8.79757 128.446 8.24529 128.446L6.16352 128.446Z" fill="white" fill-opacity="0.25"/>
<path d="M8.24529 128.446L8.24529 129.446L8.24529 128.446ZM190.22 13.8001L190.22 12.8001L190.22 13.8001ZM192.226 13.8001L192.226 14.8001L192.226 13.8001ZM1 1H3.93082V-1H1V1ZM1 116.831V1H-1V116.831H1ZM2.08176 116.831H0.999999V118.831H2.08176V116.831ZM4.08176 128.446V118.831H2.08176V128.446H4.08176ZM3.08176 127.446H0.999999V129.446H3.08176V127.446ZM-1 129.446V137H1V129.446H-1ZM1 139H2.08176V137H1V139ZM4.08176 137L4.08176 128.446L2.08176 128.446L2.08176 137L4.08176 137ZM6.16353 127.446L3.08177 127.446L3.08176 129.446L6.16352 129.446L6.16353 127.446ZM7.16352 137V128.446H5.16352V137H7.16352ZM195 137H7.16352V139H195V137ZM195 125.2V137H197V125.2H195ZM194.535 125.2H195V123.2H194.535V125.2ZM192.535 111.4V123.2H194.535V111.4H192.535ZM195 109.4H194.535V111.4H195V109.4ZM195 28.6V109.4H197V28.6H195ZM194.226 28.6H195V26.6H194.226V28.6ZM194.226 34.0308V28.6H192.226V34.0308H194.226ZM190.22 36.0308H192.226V34.0308H190.22V36.0308ZM188.22 22.2308V34.0308H190.22V22.2308H188.22ZM192.226 20.2308H190.22V22.2308H192.226V20.2308ZM192.226 14.8001V20.2308H194.226V14.8001H192.226ZM190.22 14.8001L192.226 14.8001L192.226 12.8001L190.22 12.8001L190.22 14.8001ZM188.22 1.0001V12.8001H190.22V1.0001H188.22ZM193.226 -0.999902H190.22V1.0001H193.226V-0.999902ZM9.93711 1H193.226V-1H9.93711V1ZM9.93711 12.8V1H7.93711V12.8H9.93711ZM5.93082 14.8H7.93711V12.8H5.93082V14.8ZM3.93082 1V12.8H5.93082V1H3.93082ZM7.16352 128.446L7.16352 118.831L5.16352 118.831L5.16352 128.446L7.16352 128.446ZM7.16352 118.831H8.24528V116.831H7.16352V118.831ZM8.24528 118.831V127.446H10.2453V118.831H8.24528ZM8.24528 127.446L6.16352 127.446L6.16353 129.446L8.24529 129.446L8.24528 127.446ZM8.24528 127.446L8.24528 127.446L8.24529 129.446C9.34986 129.446 10.2453 128.551 10.2453 127.446H8.24528ZM8.24528 118.831L8.24528 118.831H10.2453C10.2453 117.726 9.34985 116.831 8.24528 116.831V118.831ZM7.16352 118.831L7.16352 118.831V116.831C6.05895 116.831 5.16352 117.726 5.16352 118.831L7.16352 118.831ZM5.93082 12.8L5.93082 12.8H3.93082C3.93082 13.9046 4.82625 14.8 5.93082 14.8V12.8ZM7.93711 12.8L7.93711 12.8V14.8C9.04168 14.8 9.93711 13.9046 9.93711 12.8H7.93711ZM9.93711 -1C8.83254 -1 7.93711 -0.104568 7.93711 1H9.93711L9.93711 1V-1ZM194.226 4.8895e-05C194.226 -0.405351 193.915 -1 193.226 -1V1C192.934 1 192.658 0.872467 192.468 0.652029C192.29 0.445358 192.226 0.203726 192.226 4.8895e-05H194.226ZM190.22 12.8001L190.22 12.8001H188.22C188.22 13.9047 189.116 14.8001 190.22 14.8001L190.22 12.8001ZM194.226 14.8001C194.226 13.6955 193.331 12.8 192.226 12.8001L192.226 14.8001L192.226 14.8001H194.226ZM192.226 22.2308C193.331 22.2308 194.226 21.3354 194.226 20.2308H192.226L192.226 20.2308V22.2308ZM190.22 22.2308L190.22 22.2308V20.2308C189.116 20.2308 188.22 21.1262 188.22 22.2308H190.22ZM190.22 34.0308L190.22 34.0308H188.22C188.22 35.1354 189.116 36.0308 190.22 36.0308V34.0308ZM192.226 34.0308L192.226 34.0308V36.0308C193.331 36.0308 194.226 35.1354 194.226 34.0308H192.226ZM194.226 26.6C193.122 26.6 192.226 27.4955 192.226 28.6H194.226L194.226 28.6V26.6ZM197 28.6C197 27.4955 196.105 26.6 195 26.6V28.6L195 28.6H197ZM195 111.4C196.105 111.4 197 110.505 197 109.4H195L195 109.4V111.4ZM194.535 111.4L194.535 111.4V109.4C193.43 109.4 192.535 110.295 192.535 111.4H194.535ZM195 139C196.105 139 197 138.105 197 137H195L195 137V139ZM5.16352 137C5.16352 138.105 6.05895 139 7.16352 139V137L7.16352 137H5.16352ZM2.08176 139C3.18633 139 4.08176 138.105 4.08176 137L2.08176 137L2.08176 137V139ZM-1 137C-1 138.105 -0.104572 139 1 139V137L1 137H-1ZM2.08176 118.831L2.08176 118.831H4.08176C4.08176 117.726 3.18633 116.831 2.08176 116.831V118.831ZM-1 116.831C-1 117.935 -0.104572 118.831 0.999999 118.831V116.831L1 116.831H-1ZM194.535 123.2L194.535 123.2H192.535C192.535 124.305 193.43 125.2 194.535 125.2V123.2ZM193.226 1.0001C193.779 1.0001 194.226 0.552361 194.226 4.8895e-05H192.226C192.226 -0.552209 192.674 -0.999902 193.226 -0.999902V1.0001ZM3.93082 1L3.93082 1H5.93082C5.93082 -0.104569 5.03539 -1 3.93082 -1V1ZM0.999999 127.446C-0.104572 127.446 -1 128.342 -1 129.446H1L0.999999 129.446V127.446ZM197 125.2C197 124.095 196.105 123.2 195 123.2V125.2L195 125.2H197ZM190.22 1.0001L190.22 1.0001V-0.999902C189.116 -0.999902 188.22 -0.104471 188.22 1.0001H190.22ZM1 -1C-0.10457 -1 -1 -0.104569 -1 1H1L1 1V-1Z" fill="white" mask="url(#path-1-inside-1_45_277)"/>
</svg>
