<svg width="22" height="18" viewBox="0 0 22 18" fill="none" xmlns="http://www.w3.org/2000/svg">
<path d="M10 2.99894H12.6929C12.8829 2.99894 13.0565 2.89127 13.1409 2.72107L13.8191 1.35336C13.9221 1.14565 14.1533 1.03657 14.3761 1.10048C15.0315 1.28842 16.4069 1.74185 17.5042 2.49894C21.3682 5.39616 21.0078 11.8886 20.9786 13.2598C20.9768 13.3435 20.9554 13.4261 20.9142 13.4989C18.9311 16.9989 15.491 16.9989 15.491 16.9989L14.3248 14.5727M12 2.99894H9.31193C9.12236 2.99894 8.94909 2.89173 8.86449 2.72208L8.18127 1.35214C8.07799 1.14504 7.84722 1.03645 7.62476 1.10023C6.96978 1.28801 5.59358 1.74151 4.49577 2.49894C0.631803 5.39616 0.992177 11.8886 1.0214 13.2598C1.02319 13.3435 1.04456 13.4261 1.08583 13.4989C3.06894 16.9989 6.50897 16.9989 6.50897 16.9989L7.67893 14.5723M6.00128 13.9989C6.60094 14.2238 7.15567 14.4149 7.67893 14.5723M16.0038 13.9989C15.4036 14.224 14.8485 14.4152 14.3248 14.5727M7.67893 14.5723C10.1232 15.3077 11.8808 15.3078 14.3248 14.5727M9.00205 8.99894C9.00205 9.55122 8.55422 9.99894 8.00179 9.99894C7.44937 9.99894 7.00154 9.55122 7.00154 8.99894C7.00154 8.44665 7.44937 7.99894 8.00179 7.99894C8.55422 7.99894 9.00205 8.44665 9.00205 8.99894ZM15.0036 8.99894C15.0036 9.55122 14.5558 9.99894 14.0033 9.99894C13.4509 9.99894 13.0031 9.55122 13.0031 8.99894C13.0031 8.44665 13.4509 7.99894 14.0033 7.99894C14.5558 7.99894 15.0036 8.44665 15.0036 8.99894Z" stroke="white" stroke-opacity="0.32" stroke-width="2" stroke-linecap="round" stroke-linejoin="round"/>
</svg>
