<svg width="16" height="17" viewBox="0 0 16 17" fill="none" xmlns="http://www.w3.org/2000/svg">
<path d="M14.5361 5.90128L10.864 8.2381C9.82629 8.89845 9.30745 9.22862 8.74983 9.35724C8.25685 9.47095 7.74445 9.47095 7.25147 9.35724C6.69385 9.22862 6.17501 8.89845 5.13731 8.2381L1.46517 5.90128M14.5361 5.90128C14.6673 6.54148 14.6673 7.39753 14.6673 8.72689C14.6673 10.5937 14.6673 11.5272 14.304 12.2402C13.9844 12.8674 13.4745 13.3773 12.8473 13.6969C12.1342 14.0602 11.2008 14.0602 9.33398 14.0602H6.66732C4.80048 14.0602 3.86706 14.0602 3.15402 13.6969C2.52681 13.3773 2.01687 12.8674 1.6973 12.2402C1.33398 11.5272 1.33398 10.5937 1.33398 8.72689C1.33398 7.39753 1.33398 6.54148 1.46517 5.90128M14.5361 5.90128C14.4831 5.64244 14.4086 5.41888 14.304 5.21359C13.9844 4.58638 13.4745 4.07644 12.8473 3.75687C12.1342 3.39355 11.2008 3.39355 9.33398 3.39355H6.66732C4.80048 3.39355 3.86706 3.39355 3.15402 3.75687C2.52681 4.07644 2.01687 4.58638 1.6973 5.21359C1.5927 5.41888 1.51821 5.64244 1.46517 5.90128" stroke="white" stroke-opacity="0.32" stroke-width="1.5" stroke-linecap="round" stroke-linejoin="round"/>
</svg>
