<svg width="16" height="16" viewBox="0 0 16 16" fill="none" xmlns="http://www.w3.org/2000/svg">
<path d="M3.34778 7.19463L12.6075 3.59721C13.1227 3.39702 13.3804 3.29692 13.5702 3.34486C13.7357 3.38666 13.8747 3.49539 13.9521 3.64347C14.0409 3.8133 13.9953 4.07915 13.9041 4.61085L12.8652 10.6647C12.7072 11.5854 12.6283 12.0457 12.3792 12.3023C12.1614 12.5267 11.8606 12.6576 11.5432 12.6661C11.1802 12.6757 10.7739 12.4265 9.96147 11.9281L8.23762 10.8707C7.71977 10.553 7.46085 10.3942 7.34919 10.1805C7.25129 9.99312 7.22656 9.77766 7.27956 9.57395C7.34002 9.3416 7.55656 9.13128 7.98964 8.71064L10.9004 5.88351L5.99788 8.7405C5.60509 8.9694 5.40868 9.08386 5.19722 9.14623C5.00978 9.20151 4.81426 9.22654 4.61847 9.22032C4.39759 9.21331 4.17736 9.1522 3.73691 9.02997L3.44009 8.9476C2.61916 8.71979 2.20869 8.60588 2.08729 8.41255C1.98225 8.24527 1.97132 8.03777 2.05824 7.86095C2.1587 7.65659 2.55506 7.50261 3.34778 7.19463Z" stroke="white" stroke-opacity="0.32" stroke-width="1.5" stroke-linecap="round" stroke-linejoin="round"/>
</svg>
